<?xml version="1.0" standalone="no"?>
<!DOCTYPE svg PUBLIC "-//W3C//DTD SVG 20010904//EN"
 "http://www.w3.org/TR/2001/REC-SVG-20010904/DTD/svg10.dtd">
<svg version="1.0" xmlns="http://www.w3.org/2000/svg"
 width="1920.000000pt" height="1080.000000pt" viewBox="0 0 1920.000000 1080.000000"
 preserveAspectRatio="xMidYMid meet">

<g transform="translate(0.000000,1080.000000) scale(0.100000,-0.100000)"
fill="#000000" stroke="none">
<path d="M9295 9989 c-820 -55 -1642 -344 -2315 -814 -433 -303 -847 -717
-1156 -1158 -167 -236 -347 -564 -462 -837 l-48 -115 -139 -18 c-263 -33 -402
-84 -505 -185 -139 -137 -135 -303 16 -604 79 -157 104 -228 104 -294 0 -113
-58 -186 -188 -237 -143 -57 -365 -34 -449 45 -55 51 -34 128 46 171 65 35
105 44 286 62 217 23 228 35 153 165 -63 108 -51 105 -285 81 -257 -27 -370
-47 -468 -83 -185 -67 -277 -192 -262 -356 17 -182 151 -298 407 -353 87 -19
136 -23 280 -23 246 1 442 38 617 119 l73 34 0 -172 c1 -1135 386 -2179 1117
-3033 130 -152 394 -412 548 -540 653 -540 1430 -888 2265 -1013 254 -38 378
-46 690 -45 326 0 483 13 755 59 818 138 1547 474 2188 1008 129 107 402 369
419 402 10 17 9 18 -4 8 -20 -17 -56 -18 -91 -5 l-27 12 21 21 c12 12 24 17
28 12 7 -11 47 -9 76 3 19 8 19 8 -5 15 -23 7 -23 7 7 8 37 1 51 -14 26 -28
-10 -5 -15 -12 -12 -16 14 -14 233 251 388 469 50 70 91 132 91 137 0 5 0 11
0 14 0 3 9 14 20 25 11 11 20 27 20 35 0 8 4 15 9 15 11 0 63 86 135 221 58
110 67 135 41 125 -9 -3 -18 1 -21 9 -4 8 -12 15 -20 15 -8 0 -14 10 -14 23
-1 22 -1 22 -16 2 -8 -11 -12 -25 -9 -33 2 -7 1 -11 -4 -8 -4 3 -33 -42 -65
-99 -194 -360 -505 -767 -812 -1064 -747 -723 -1690 -1158 -2719 -1256 -219
-21 -624 -21 -840 0 -992 95 -1886 493 -2630 1172 -490 447 -893 1036 -1140
1666 -209 536 -306 1057 -307 1651 l0 258 42 40 c58 56 107 136 125 205 29
111 17 212 -45 380 l-23 61 23 106 c13 59 26 105 29 103 84 -47 165 -61 253
-42 83 17 124 41 178 102 154 176 25 445 -219 455 -22 1 -41 3 -41 5 0 12 92
216 145 324 226 450 495 821 854 1179 229 227 427 391 676 557 623 416 1328
666 2080 738 253 25 689 22 905 -5 592 -74 1048 -210 1545 -460 237 -119 435
-240 627 -382 73 -54 136 -94 144 -91 9 3 14 -2 14 -16 0 -12 4 -21 9 -21 5 0
16 -6 23 -12 7 -7 72 -65 143 -129 481 -431 875 -970 1126 -1542 l40 -90 -62
-63 c-35 -35 -64 -62 -65 -61 -2 2 5 34 15 73 19 74 15 109 -15 121 -20 7
-356 -24 -389 -37 -18 -7 -26 -23 -40 -80 -10 -39 -19 -70 -20 -68 -2 2 -38
72 -80 155 l-77 153 31 35 c136 156 91 366 -97 453 -59 27 -129 33 -232 19
l-45 -6 -65 82 c-95 120 -396 419 -418 415 -9 -2 -23 -17 -31 -33 -8 -17 -35
-53 -62 -81 -27 -29 -53 -69 -60 -92 -6 -23 -23 -51 -35 -63 -13 -13 -24 -33
-24 -46 0 -13 -4 -23 -9 -23 -5 0 -12 -12 -15 -26 -4 -14 -17 -36 -30 -49 -29
-29 -40 -65 -20 -65 27 0 13 -30 -36 -78 l-49 -48 55 -55 c31 -30 65 -67 76
-82 l20 -28 -75 -77 c-72 -74 -141 -171 -186 -259 -23 -47 -25 -53 -13 -53 5
0 14 11 20 24 11 25 71 44 82 26 4 -6 26 18 49 54 123 191 331 340 576 414 55
17 129 34 165 38 36 3 73 8 82 10 10 1 59 6 110 9 86 6 97 5 137 -17 25 -13
58 -41 75 -62 28 -34 31 -45 31 -106 0 -61 -3 -72 -31 -107 -130 -160 -394
-87 -394 109 0 60 -16 72 -80 65 -140 -17 -293 -143 -384 -317 -40 -75 -35
-87 23 -63 25 10 36 10 42 2 5 -8 8 -7 12 2 5 11 9 10 21 -4 14 -18 15 -18 25
2 6 11 11 31 11 44 0 13 9 32 20 42 20 18 21 18 46 -6 14 -13 34 -23 45 -21
20 3 25 -13 10 -37 -6 -9 -18 -11 -34 -7 -35 8 -77 -32 -73 -71 1 -15 8 -27
14 -26 7 2 12 -5 12 -15 0 -9 28 -62 61 -117 62 -103 188 -349 208 -406 l11
-31 -103 4 c-225 10 -334 109 -354 320 l-6 71 -24 -48 c-14 -26 -33 -50 -44
-52 -20 -6 -20 -7 3 -98 34 -133 136 -230 288 -271 88 -24 262 -22 515 5 238
25 220 25 204 5 -34 -41 -87 -54 -316 -79 -480 -51 -677 -34 -855 75 -27 17
-51 30 -55 30 -3 0 -17 -12 -30 -27 -20 -21 -27 -23 -34 -12 -5 8 -9 20 -9 27
0 27 -20 10 -26 -24 -3 -19 -14 -40 -24 -46 -10 -7 -16 -18 -13 -26 3 -8 0
-18 -8 -23 -10 -6 -10 -9 -1 -9 6 0 12 -4 12 -10 0 -5 -9 -10 -20 -10 -19 0
-21 -5 -17 -41 3 -34 1 -42 -13 -46 -10 -3 -20 -13 -23 -23 -4 -14 -11 -17
-27 -13 -16 4 -21 3 -16 -5 4 -8 -3 -16 -18 -22 -15 -5 -26 -17 -26 -28 0 -10
-6 -24 -12 -31 -11 -10 -8 -16 12 -31 14 -11 30 -20 37 -20 15 0 11 -44 -6
-64 -7 -9 -17 -13 -22 -10 -5 3 -9 -3 -9 -13 0 -15 6 -18 39 -15 28 3 38 8 37
20 -1 12 6 16 22 14 26 -2 52 18 52 42 0 26 14 18 30 -17 8 -17 20 -31 27 -30
6 1 17 -4 23 -12 7 -8 19 -15 26 -15 8 0 14 -8 14 -19 0 -10 6 -32 13 -49 10
-23 16 -29 27 -22 24 15 30 12 30 -16 0 -16 4 -23 12 -18 6 4 17 -1 24 -10 7
-10 17 -15 23 -11 19 11 12 33 -12 39 -27 6 -61 66 -38 66 5 0 11 -9 14 -20 5
-21 27 -28 27 -9 0 6 12 -3 26 -20 14 -17 34 -31 44 -31 10 0 22 -4 25 -10 3
-5 10 -10 15 -10 12 0 0 32 -14 42 -8 5 -7 8 1 8 11 0 6 29 -30 160 -14 49
-82 247 -102 292 -6 16 0 15 56 -6 128 -48 212 -61 394 -61 94 0 206 2 250 5
l79 5 28 -100 c54 -191 92 -404 113 -627 6 -61 8 -67 28 -65 12 1 22 -2 22 -8
0 -5 4 -16 8 -22 5 -9 3 -13 -7 -13 -9 0 -16 5 -16 11 0 6 -7 4 -15 -5 -12
-12 -15 -38 -14 -123 1 -111 10 -143 35 -122 10 8 17 7 29 -5 9 -9 26 -16 38
-16 26 0 67 -37 61 -55 -6 -16 41 -26 55 -12 7 7 13 4 17 -9 9 -24 44 -53 65
-54 9 0 27 -13 40 -29 23 -29 53 -32 42 -5 -3 8 0 14 6 14 7 0 14 -7 18 -16 3
-8 12 -13 19 -10 8 3 14 1 14 -5 0 -6 5 -7 10 -4 6 4 17 2 24 -4 8 -7 18 -11
22 -10 35 6 44 -2 44 -42 0 -33 4 -42 21 -46 16 -4 17 -8 7 -14 -13 -8 -14
-12 -17 -44 0 -9 -7 -15 -13 -14 -20 3 -48 -12 -48 -26 0 -7 -6 -15 -12 -18
-10 -3 -9 -8 2 -22 14 -17 13 -18 -8 -13 -19 5 -21 4 -11 -8 9 -11 9 -14 0
-14 -7 0 -9 -5 -6 -10 5 -8 11 -8 20 0 22 18 60 2 61 -25 1 -14 -2 -25 -7 -25
-5 0 -9 -8 -9 -18 0 -26 -11 -34 -26 -21 -8 6 -21 9 -29 5 -9 -3 -15 0 -15 8
0 9 -9 12 -26 8 l-27 -5 23 -17 c19 -14 22 -24 17 -53 -3 -22 0 -42 8 -55 8
-10 11 -22 8 -26 -4 -3 0 -12 9 -19 19 -15 31 -47 18 -47 -6 0 -10 -7 -10 -16
0 -8 5 -12 10 -9 6 3 19 3 30 0 15 -5 20 -15 20 -41 0 -30 -3 -34 -26 -34 -28
0 -29 -17 -2 -33 32 -21 46 0 72 111 24 101 26 149 6 137 -5 -3 -11 -1 -14 4
-8 13 4 42 15 35 5 -3 9 4 9 15 0 12 -7 21 -15 21 -8 0 -15 -7 -15 -15 0 -8
-4 -15 -10 -15 -17 0 -11 15 15 40 l24 23 12 -29 c12 -28 13 -27 26 41 48 251
71 625 54 891 -17 277 -66 598 -116 769 -14 45 -14 50 2 59 10 5 75 68 145
140 113 116 126 127 118 96 -25 -88 -1 -169 58 -203 43 -25 141 -26 200 -2 24
10 44 16 46 14 7 -9 67 -310 81 -404 8 -55 22 -177 32 -271 l16 -172 41 14
c22 8 46 12 53 10 17 -7 17 19 -2 202 -20 194 -49 368 -90 554 l-34 152 52 54
c29 30 72 76 97 102 l45 47 0 -67 c0 -58 4 -71 29 -104 16 -22 49 -47 74 -59
l46 -20 247 26 c257 27 324 43 365 88 15 17 20 18 39 5 11 -7 46 -19 78 -26
49 -10 108 -6 459 30 222 22 425 45 453 51 89 18 169 78 199 151 21 49 20 71
-2 99 -19 22 -19 22 -138 10 -65 -6 -135 -14 -154 -17 l-35 -5 3 64 c4 78 -17
146 -93 298 -47 92 -53 112 -45 134 13 35 13 126 -1 162 -26 69 -116 123 -205
123 -30 0 -41 -10 -127 -122 -161 -209 -158 -203 -121 -297 l14 -33 -105 -119
c-58 -66 -106 -125 -106 -132 -1 -7 -1 -19 0 -28 1 -10 -8 -19 -23 -23 -32 -8
-93 -60 -111 -95 -13 -26 -18 -27 -145 -40 -72 -7 -134 -10 -137 -7 -3 2 11
71 30 153 20 81 38 162 42 179 9 47 -13 118 -47 151 -28 27 -34 28 -121 28
-129 0 -180 -26 -310 -157 -93 -94 -98 -97 -92 -65 15 81 -36 159 -113 172
-47 8 -165 -16 -222 -45 -23 -12 -43 -20 -44 -18 -1 2 -28 60 -61 131 -205
447 -509 886 -870 1256 -216 221 -539 496 -569 485 -7 -3 -15 3 -18 13 -3 10
-24 31 -46 47 -33 23 -45 26 -56 17 -12 -10 -13 -9 -9 8 4 16 -13 32 -98 87
-842 545 -1824 800 -2824 733z m3022 -931 c-3 -8 -6 -5 -6 6 -1 11 2 17 5 13
3 -3 4 -12 1 -19z m303 -222 c0 -7 -7 -19 -15 -26 -12 -10 -15 -9 -15 7 0 11
3 23 7 26 11 12 23 8 23 -7z m-430 -727 c-13 -24 -40 -25 -40 -1 0 10 8 28 17
41 l16 24 9 -22 c4 -13 4 -30 -2 -42z m-45 -79 c3 -5 -1 -10 -10 -10 -9 0 -13
5 -10 10 3 6 8 10 10 10 2 0 7 -4 10 -10z m3511 -436 c48 -23 64 -76 40 -137
-9 -23 -16 -50 -16 -60 0 -10 25 -67 55 -128 105 -208 118 -270 76 -346 -13
-22 -21 -48 -19 -59 7 -37 37 -41 203 -24 l158 16 -32 -26 c-17 -15 -48 -32
-69 -39 -37 -11 -782 -91 -854 -91 -96 0 -143 76 -86 137 47 51 126 53 248 6
36 -13 80 -30 99 -38 47 -17 69 -9 92 38 34 65 35 131 5 212 -47 124 -74 133
-156 50 -35 -35 -63 -55 -77 -55 -20 0 -13 12 57 92 44 51 80 100 80 110 0 9
-11 38 -25 64 l-25 47 28 37 c115 155 159 209 170 210 8 0 29 -7 48 -16z
m-3628 -76 c-2 -6 -10 -14 -16 -16 -7 -2 -10 2 -6 12 7 18 28 22 22 4z m2652
-298 c11 -11 20 -31 20 -44 0 -12 -22 -112 -49 -221 -51 -207 -53 -237 -13
-247 11 -3 92 2 181 11 89 9 161 14 161 10 0 -11 -36 -38 -70 -52 -19 -8 -137
-25 -263 -38 l-227 -23 -28 21 c-35 26 -38 62 -13 183 22 108 15 143 -30 148
-21 2 -52 -25 -197 -176 -179 -187 -245 -240 -310 -249 -90 -12 -100 26 -53
205 32 122 28 154 -19 160 -21 2 -56 -29 -210 -189 -101 -105 -198 -197 -215
-204 -16 -7 -65 -16 -107 -20 -67 -6 -78 -5 -78 8 0 9 -10 23 -22 31 -22 16
-22 16 -2 16 12 0 28 8 36 18 8 9 40 125 72 257 31 131 59 242 62 244 6 7 237
31 242 26 2 -2 -8 -55 -22 -117 -29 -127 -31 -149 -14 -166 33 -33 60 -15 223
147 179 179 227 211 321 214 82 3 85 -5 49 -153 -32 -134 -30 -152 21 -158 26
-3 46 14 189 161 156 159 195 189 270 208 52 12 74 10 95 -11z m794 -222 c8
-32 7 -88 -1 -88 -5 0 -37 11 -73 25 -54 20 -60 24 -34 24 20 1 40 11 59 31
34 36 41 37 49 8z m-9908 -54 c65 -40 86 -72 92 -138 4 -47 0 -62 -23 -101
-101 -173 -395 -114 -395 79 0 82 -47 103 -158 71 -74 -22 -108 -55 -122 -118
-15 -66 1 -117 104 -330 105 -219 126 -280 126 -380 0 -69 -4 -91 -28 -142
-73 -153 -292 -280 -572 -332 -136 -25 -424 -25 -540 0 -217 47 -330 145 -330
287 0 103 48 166 165 221 89 42 158 57 364 79 102 11 207 23 232 26 42 5 46 3
57 -22 7 -14 11 -28 9 -30 -2 -2 -64 -10 -138 -18 -150 -17 -229 -40 -293 -86
-113 -82 -123 -228 -21 -318 65 -57 153 -84 291 -90 286 -11 485 120 501 330
3 35 0 83 -7 108 -7 25 -12 46 -11 47 2 10 -38 104 -93 216 -86 175 -106 234
-106 320 0 110 47 180 160 237 105 52 191 73 430 100 201 24 246 22 306 -16z
m6536 -106 c-7 -7 -12 -8 -12 -2 0 14 12 26 19 19 2 -3 -1 -11 -7 -17z m-6962
-82 c0 -7 7 -37 17 -65 15 -49 15 -54 -4 -123 l-20 -73 -42 84 c-42 88 -49
118 -30 152 17 32 79 52 79 25z m10470 -56 c0 -5 -4 -10 -9 -10 -6 0 -13 5
-16 10 -3 6 1 10 9 10 9 0 16 -4 16 -10z m-3856 -435 c-4 -8 -10 -12 -15 -9
-11 6 -2 24 11 24 5 0 7 -7 4 -15z m116 -55 c0 -5 -2 -10 -4 -10 -3 0 -8 5
-11 10 -3 6 -1 10 4 10 6 0 11 -4 11 -10z m-234 -97 c-10 -10 -19 5 -10 18 6
11 8 11 12 0 2 -7 1 -15 -2 -18z m64 -17 c0 -11 -19 -15 -25 -6 -3 5 1 10 9
10 9 0 16 -2 16 -4z m1206 -495 c19 16 37 0 31 -27 -3 -19 0 -24 15 -24 16 0
17 -3 8 -20 -16 -30 -27 -24 -35 16 -5 31 -9 35 -30 30 -15 -4 -25 -1 -28 8
-7 18 4 29 17 16 6 -6 14 -6 22 1z m118 -36 c-6 -16 -24 -21 -24 -7 0 11 11
22 21 22 5 0 6 -7 3 -15z m111 -24 c3 -5 1 -12 -5 -16 -5 -3 -10 1 -10 9 0 18
6 21 15 7z m-139 -38 c-10 -10 -19 5 -10 18 6 11 8 11 12 0 2 -7 1 -15 -2 -18z
m194 -354 c0 -6 -4 -7 -10 -4 -5 3 -10 11 -10 16 0 6 5 7 10 4 6 -3 10 -11 10
-16z m230 -172 c0 -5 -4 -5 -10 -2 -5 3 -10 14 -10 23 0 15 2 15 10 2 5 -8 10
-19 10 -23z m-50 -367 c0 -5 -4 -10 -10 -10 -5 0 -10 5 -10 10 0 6 5 10 10 10
6 0 10 -4 10 -10z m203 -1442 c4 -10 8 -9 17 2 9 12 11 12 8 1 -6 -21 -21 -23
-43 -6 -17 12 -18 14 -3 15 9 0 19 -6 21 -12z m-77 -203 c-4 -24 -16 -30 -16
-7 0 12 4 22 9 22 5 0 8 -7 7 -15z m-951 -1025 c-3 -5 -10 -10 -16 -10 -5 0
-9 5 -9 10 0 6 7 10 16 10 8 0 12 -4 9 -10z m-45 -75 c-7 -8 -17 -12 -22 -9
-6 4 -5 10 3 15 22 14 33 10 19 -6z"/>
<path d="M9385 9304 c-767 -50 -1494 -316 -2108 -772 l-89 -65 37 -23 c42 -25
69 -22 60 7 -5 14 -2 17 9 13 9 -3 21 4 32 20 11 18 22 25 34 21 10 -3 21 -1
25 5 3 5 1 10 -4 10 -6 0 -11 5 -11 11 0 5 8 9 18 8 46 -4 72 2 72 17 0 18 38
53 58 54 9 0 12 -10 10 -32 -2 -19 2 -33 10 -35 9 -4 11 2 6 21 -3 15 -2 26 4
26 6 0 8 9 5 20 -5 18 -1 20 41 19 25 -1 46 -6 46 -11 0 -4 5 -8 11 -8 5 0 7
5 4 10 -3 6 -2 10 3 10 13 0 22 -39 11 -46 -6 -3 -5 -11 2 -20 9 -11 9 -14 -1
-14 -6 0 -20 10 -30 23 -15 18 -21 20 -31 10 -10 -10 -10 -13 -1 -13 7 0 12
-8 12 -18 0 -10 5 -23 12 -30 9 -9 8 -13 -5 -17 -9 -4 -13 -13 -10 -21 4 -11
8 -12 19 -3 12 9 18 8 29 -7 14 -18 14 -18 15 0 0 15 3 16 15 6 22 -18 19 -43
-4 -35 -11 3 -21 0 -24 -8 -8 -20 9 -88 23 -97 18 -11 7 -46 -13 -42 -12 2
-15 -2 -10 -15 6 -16 5 -16 -10 -4 -9 7 -17 9 -17 3 0 -5 7 -13 16 -16 9 -4
13 -13 10 -24 -6 -19 29 -49 39 -32 3 5 1 11 -5 15 -19 11 -10 33 15 37 14 3
25 1 25 -3 0 -5 5 -9 11 -9 7 0 9 10 5 25 -4 14 -2 25 4 25 5 0 10 8 10 18 1
16 1 16 11 0 5 -10 22 -18 37 -18 24 -1 25 -2 9 -11 -10 -6 -25 -8 -34 -5 -13
5 -14 4 -4 -8 10 -12 7 -18 -14 -32 -22 -15 -28 -15 -35 -3 -5 7 -12 11 -15 7
-7 -7 22 -38 36 -38 5 0 9 5 9 11 0 5 5 7 10 4 6 -4 8 -15 5 -26 -4 -12 -2
-19 6 -19 8 0 7 -5 -3 -17 -9 -10 -14 -23 -11 -29 5 -14 -39 -26 -61 -18 -9 3
-21 24 -27 45 -8 24 -18 39 -28 39 -9 0 -22 9 -29 20 -7 11 -21 20 -31 20 -10
0 -21 8 -24 18 -5 21 -69 40 -75 22 -4 -12 -32 -14 -32 -1 0 13 26 32 33 24 4
-3 7 -1 7 5 0 7 -9 12 -20 12 -14 0 -18 5 -13 16 5 14 3 15 -15 5 -12 -6 -26
-19 -31 -29 -10 -16 -10 -16 -11 0 0 30 -18 29 -33 -1 -8 -17 -11 -31 -6 -33
5 -2 6 -13 3 -25 -4 -15 -15 -22 -37 -25 -46 -5 -88 2 -82 13 8 12 -20 40 -37
37 -8 -2 -13 8 -13 27 0 28 -3 30 -35 30 -47 1 -61 11 -56 41 5 26 -11 33 -20
9 -4 -8 -12 -15 -19 -15 -27 0 -25 -20 2 -26 29 -8 75 -44 55 -44 -6 0 -14 5
-17 11 -4 6 -20 9 -36 7 -18 -2 -33 3 -39 12 -7 12 -12 11 -29 -4 -12 -11 -21
-25 -21 -33 0 -7 -6 -13 -12 -13 -7 0 -30 -17 -50 -38 -102 -103 -105 -107
-97 -127 13 -33 10 -41 -7 -17 -13 18 -19 21 -30 11 -20 -16 -17 -32 5 -26 15
4 18 -1 16 -35 -1 -22 -8 -45 -14 -51 -8 -8 -11 -8 -11 1 0 7 -7 12 -16 12 -8
0 -13 -4 -9 -9 3 -5 -1 -15 -8 -23 -27 -27 -28 -60 0 -85 14 -14 32 -22 39
-19 17 7 19 -10 2 -17 -8 -4 -3 -9 11 -13 22 -6 22 -8 7 -19 -15 -11 -14 -13
9 -17 14 -3 28 -1 31 3 9 15 24 10 24 -6 0 -9 -6 -15 -12 -13 -23 4 -60 -23
-54 -39 5 -11 2 -13 -10 -9 -8 3 -18 6 -20 6 -3 0 -9 11 -14 24 -7 19 -14 23
-32 19 -17 -3 -19 -2 -9 5 8 6 11 17 7 28 -6 15 -9 16 -16 5 -4 -8 -16 -12
-27 -9 -13 4 -22 -2 -30 -19 -10 -20 -9 -24 2 -19 24 9 1 -38 -26 -51 -17 -9
-19 -13 -7 -13 9 0 20 5 23 10 10 17 26 11 23 -7 -1 -10 1 -24 6 -32 5 -8 3
-16 -5 -22 -8 -5 -9 -9 -3 -9 16 0 37 27 30 39 -4 5 -2 12 3 15 5 4 12 2 15
-2 3 -5 24 -8 46 -7 28 2 40 -2 40 -11 0 -8 -5 -14 -11 -14 -5 0 -17 -16 -25
-35 -15 -37 -30 -48 -22 -17 3 12 -2 24 -13 31 -11 6 -19 7 -19 2 0 -5 6 -12
13 -14 6 -3 3 -6 -8 -7 -18 -1 -19 -1 -2 -11 9 -5 17 -16 17 -24 0 -7 9 -17
20 -20 21 -7 27 -24 10 -26 -5 -1 -14 -2 -19 -3 -6 0 -16 -7 -22 -13 -10 -10
-10 -13 0 -13 8 0 10 -7 6 -20 -4 -12 -2 -20 5 -20 17 0 3 -53 -17 -63 -13 -8
-12 -11 2 -27 16 -17 15 -19 -4 -30 -18 -9 -19 -14 -9 -30 16 -26 37 -33 54
-19 19 15 18 29 -2 29 -10 0 -12 4 -7 13 4 6 6 21 4 32 -3 19 -2 19 16 3 22
-20 38 -24 27 -7 -4 7 -1 10 7 7 8 -3 14 -14 13 -26 0 -13 4 -18 13 -15 25 10
13 -13 -17 -30 -16 -10 -30 -22 -30 -28 0 -16 16 -10 40 16 13 14 30 23 37 21
16 -7 54 24 46 37 -3 5 3 6 15 3 11 -4 23 -2 27 4 3 5 13 10 22 10 15 0 14 -2
0 -18 -10 -10 -17 -22 -17 -27 0 -4 -8 -14 -17 -21 -15 -12 -16 -15 -3 -23 8
-5 18 -7 22 -5 4 3 8 0 8 -5 0 -6 4 -11 8 -11 5 0 8 16 7 35 0 19 2 35 5 35 3
0 13 20 23 45 11 25 23 43 27 40 5 -3 19 -1 32 4 12 6 17 10 11 10 -15 1 -18
37 -4 45 4 3 6 17 3 31 -2 15 0 25 7 25 6 0 11 -6 11 -13 0 -8 12 -14 28 -15
23 0 28 3 27 21 -1 15 11 31 37 49 46 34 48 51 7 71 -30 14 -30 15 -10 22 l21
6 -20 26 c-19 24 -19 26 -3 39 11 8 13 13 6 14 -20 0 -15 18 6 25 13 4 17 12
14 25 -3 11 0 20 6 20 6 0 11 -4 11 -10 0 -5 7 -10 16 -10 14 0 14 2 1 15 -12
12 -13 23 -5 57 13 50 34 78 60 78 10 0 18 5 18 11 0 8 15 9 45 5 37 -6 44 -5
39 8 -8 20 56 80 70 66 15 -15 26 -12 20 5 -8 21 13 19 25 -2 5 -10 13 -14 18
-10 4 5 0 13 -10 18 -9 6 -17 18 -17 27 0 12 3 13 8 5 4 -7 18 -11 30 -8 12 2
24 0 27 -6 10 -14 28 -11 22 5 -4 9 0 13 11 11 9 -2 20 -4 24 -4 4 -1 7 -12 6
-25 -1 -14 -7 -22 -14 -19 -7 2 -15 -5 -19 -16 -3 -12 -11 -19 -16 -15 -5 3
-2 -10 7 -30 10 -19 21 -33 25 -30 5 3 7 -13 5 -36 -2 -22 0 -40 4 -40 18 0
70 53 70 71 0 11 9 27 19 36 15 12 17 21 11 39 -8 19 -5 23 13 26 12 2 22 9
22 17 0 8 6 16 13 19 7 2 10 -2 7 -10 -6 -16 11 -45 21 -35 13 13 10 121 -3
135 -29 30 -12 40 32 20 23 -10 28 -10 37 6 7 13 13 15 24 5 7 -6 11 -15 8
-20 -3 -5 3 -9 13 -9 21 0 53 33 53 54 0 17 45 37 67 29 11 -4 14 -3 9 5 -10
16 17 15 32 0 10 -10 15 -10 22 2 5 8 10 23 10 32 0 9 4 19 10 23 5 3 7 12 3
20 -3 9 1 15 11 15 10 0 16 9 16 23 0 25 27 61 53 70 14 5 17 1 17 -23 0 -17
-4 -30 -10 -30 -5 0 -10 -4 -10 -10 0 -5 9 -10 20 -10 11 0 20 -7 20 -15 0 -8
5 -15 10 -15 6 0 10 -13 10 -30 0 -23 5 -30 19 -30 21 0 34 13 24 24 -3 3 -12
1 -20 -5 -8 -7 -13 -8 -13 -1 0 18 32 23 45 6 11 -15 21 -13 111 24 370 151
789 232 1194 232 623 0 1210 -174 1745 -515 107 -69 139 -85 146 -74 6 10 3
15 -11 17 -23 4 -25 13 -9 29 6 6 30 44 53 84 40 71 66 96 66 65 0 -19 16 -21
26 -4 9 14 16 62 15 102 0 16 4 37 10 48 8 14 8 23 0 31 -6 6 -13 8 -16 6 -5
-5 -13 -43 -14 -66 -1 -7 -8 -13 -17 -13 -13 0 -15 7 -10 30 5 25 2 30 -14 30
-15 0 -20 7 -20 29 0 16 7 34 15 41 12 10 15 10 15 -4 0 -41 42 2 56 58 4 19
17 32 35 39 15 6 32 21 38 34 14 30 35 30 27 1 -3 -13 -6 -26 -6 -30 0 -5 -8
-8 -18 -8 -10 0 -28 -10 -40 -23 -25 -27 -21 -62 13 -92 26 -24 40 -82 24
-102 -17 -19 -5 -27 21 -13 35 19 34 5 -4 -56 -33 -54 -41 -83 -14 -56 7 7 19
12 28 12 21 0 50 31 50 53 0 16 18 35 100 106 29 25 31 30 13 26 -34 -6 -66
-25 -90 -54 -11 -14 -24 -24 -27 -21 -12 13 15 86 38 103 15 10 26 27 26 36 0
21 37 58 47 47 4 -3 -4 -20 -16 -37 -28 -38 -22 -45 22 -24 31 14 38 14 81 0
48 -16 66 -14 66 10 0 15 -27 28 -42 19 -5 -3 -12 4 -15 15 -4 15 -11 20 -23
16 -14 -5 -17 -1 -13 13 5 22 -38 55 -62 46 -11 -4 -14 -2 -10 9 4 10 -20 32
-79 72 -85 58 -86 58 -107 39 l-21 -19 6 30 c6 29 4 32 -86 86 -477 288 -1005
467 -1578 534 -130 15 -541 27 -665 19z m-471 -218 c32 -8 67 -23 78 -33 18
-19 18 -20 -2 -38 -14 -12 -41 -20 -80 -23 -80 -6 -122 3 -155 34 -25 23 -26
27 -12 41 14 14 62 30 97 32 8 0 41 -6 74 -13z m-1070 -365 c4 -5 2 -20 -3
-33 -7 -16 -10 -18 -10 -6 -1 9 -4 23 -7 32 -6 17 11 23 20 7z m-66 -96 c7 -7
-35 -42 -56 -47 -17 -5 -23 -1 -28 17 -3 13 -3 28 0 33 5 8 75 6 84 -3z m53 6
c-7 -5 -10 -14 -7 -20 4 -6 1 -11 -8 -11 -8 0 -18 5 -22 11 -7 12 13 29 36 29
12 0 13 -2 1 -9z m3775 -69 c-12 -11 -18 7 -10 30 l8 23 4 -23 c2 -13 1 -26
-2 -30z m-3816 12 c0 -8 -6 -14 -14 -14 -9 0 -12 7 -9 20 6 22 23 18 23 -6z
m3910 6 c0 -5 -5 -10 -11 -10 -5 0 -7 5 -4 10 3 6 8 10 11 10 2 0 4 -4 4 -10z
m141 -53 c-29 -30 -39 -12 -10 19 14 15 25 20 27 14 3 -7 -5 -21 -17 -33z
m-221 -1 c0 -7 -7 -19 -15 -26 -12 -10 -15 -9 -15 7 0 11 3 23 7 26 11 12 23
8 23 -7z m250 -54 c0 -25 -20 -49 -49 -57 -26 -8 -25 -5 11 48 22 31 38 35 38
9z m-4610 -22 c0 -5 -4 -10 -10 -10 -5 0 -10 5 -10 10 0 6 5 10 10 10 6 0 10
-4 10 -10z m4504 -24 c-3 -9 -10 -16 -15 -16 -6 0 -5 9 1 21 13 24 24 20 14
-5z m-4024 -6 c0 -5 -4 -10 -10 -10 -5 0 -10 5 -10 10 0 6 5 10 10 10 6 0 10
-4 10 -10z m-20 -34 c0 -14 -29 -31 -38 -22 -2 3 -2 12 1 21 8 19 37 20 37 1z
m380 4 c0 -5 -4 -10 -10 -10 -5 0 -10 5 -10 10 0 6 5 10 10 10 6 0 10 -4 10
-10z m3680 -15 c-7 -9 -15 -13 -18 -10 -3 2 1 11 8 20 7 9 15 13 18 10 3 -2
-1 -11 -8 -20z m-3898 -20 c0 -5 -5 -11 -11 -13 -6 -2 -11 4 -11 13 0 9 5 15
11 13 6 -2 11 -8 11 -13z m-139 -27 c-6 -30 -32 -39 -29 -10 1 14 27 45 33 39
0 -1 -1 -14 -4 -29z m88 -1 c-13 -13 -26 -3 -16 12 3 6 11 8 17 5 6 -4 6 -10
-1 -17z m34 -47 c3 -5 1 -10 -4 -10 -6 0 -11 5 -11 10 0 6 2 10 4 10 3 0 8 -4
11 -10z m-11 -52 c-6 -9 -34 1 -34 11 0 4 3 10 6 14 8 7 33 -16 28 -25z m-444
12 c0 -5 -2 -10 -4 -10 -3 0 -8 5 -11 10 -3 6 -1 10 4 10 6 0 11 -4 11 -10z
m-190 -9 c0 -13 -12 -20 -26 -14 -20 8 -17 19 6 20 11 1 20 -2 20 -6z m4306
-29 c-18 -16 -18 -16 -6 6 6 13 14 21 18 18 3 -4 -2 -14 -12 -24z m245 -5
c-10 -9 -11 -8 -5 6 3 10 9 15 12 12 3 -3 0 -11 -7 -18z m-4816 3 c3 -5 1 -10
-4 -10 -6 0 -11 5 -11 10 0 6 2 10 4 10 3 0 8 -4 11 -10z m645 -46 c0 -8 -4
-12 -10 -9 -5 3 -10 10 -10 16 0 5 5 9 10 9 6 0 10 -7 10 -16z m3900 10 c0 -3
-5 -14 -10 -25 -16 -28 -32 -23 -18 6 10 22 28 35 28 19z m-4203 -26 c-3 -8
-6 -5 -6 6 -1 11 2 17 5 13 3 -3 4 -12 1 -19z m-167 -18 c0 -5 -4 -10 -10 -10
-5 0 -10 5 -10 10 0 6 5 10 10 10 6 0 10 -4 10 -10z m137 -2 c15 -6 32 -10 36
-9 15 3 33 -24 35 -54 l1 -30 -18 23 c-11 12 -23 22 -28 22 -4 0 -21 14 -36
30 -32 33 -31 35 10 18z m393 -98 c0 -5 -2 -10 -4 -10 -3 0 -8 5 -11 10 -3 6
-1 10 4 10 6 0 11 -4 11 -10z m-663 -6 c-3 -3 -12 -4 -19 -1 -8 3 -5 6 6 6 11
1 17 -2 13 -5z m183 -24 c0 -5 -2 -10 -4 -10 -3 0 -8 5 -11 10 -3 6 -1 10 4
10 6 0 11 -4 11 -10z m-63 -215 c-5 -14 -29 -13 -34 2 -3 7 4 11 16 10 12 -1
20 -6 18 -12z m-207 -5 c0 -5 -5 -10 -11 -10 -5 0 -7 5 -4 10 3 6 8 10 11 10
2 0 4 -4 4 -10z m0 -40 c0 -5 -4 -10 -10 -10 -5 0 -10 5 -10 10 0 6 5 10 10
10 6 0 10 -4 10 -10z m280 -110 c13 -8 12 -10 -2 -10 -10 0 -18 -5 -18 -11 0
-8 -5 -8 -15 1 -27 23 3 40 35 20z"/>
<path d="M7541 8494 c0 -11 3 -14 6 -6 3 7 2 16 -1 19 -3 4 -6 -2 -5 -13z"/>
<path d="M12085 8409 c-10 -15 3 -25 16 -12 7 7 7 13 1 17 -6 3 -14 1 -17 -5z"/>
<path d="M12093 8359 c-41 -17 -43 -20 -41 -58 1 -33 4 -39 15 -30 7 6 13 18
13 26 0 8 14 28 30 45 17 17 30 32 28 33 -2 1 -22 -6 -45 -16z"/>
<path d="M11841 8226 c-10 -12 -6 -26 10 -26 11 0 19 29 10 35 -5 2 -14 -1
-20 -9z"/>
<path d="M7710 8189 c0 -5 5 -7 10 -4 6 3 10 8 10 11 0 2 -4 4 -10 4 -5 0 -10
-5 -10 -11z"/>
<path d="M7720 8149 c0 -18 2 -19 15 -9 8 7 15 16 15 21 0 5 -7 9 -15 9 -9 0
-15 -9 -15 -21z"/>
<path d="M7830 8079 c0 -5 5 -7 10 -4 6 3 10 8 10 11 0 2 -4 4 -10 4 -5 0 -10
-5 -10 -11z"/>
<path d="M11817 8053 c-4 -3 -7 -11 -7 -17 0 -6 5 -5 12 2 6 6 9 14 7 17 -3 3
-9 2 -12 -2z"/>
<path d="M11787 8023 c-4 -3 -7 -11 -7 -17 0 -6 5 -5 12 2 6 6 9 14 7 17 -3 3
-9 2 -12 -2z"/>
<path d="M11741 7969 c-13 -10 -29 -19 -36 -19 -25 0 -33 -53 -11 -75 10 -10
16 -11 24 -3 17 17 26 -15 13 -41 -7 -13 -8 -22 -1 -26 5 -3 10 0 10 8 0 8 7
20 15 27 8 7 15 22 15 34 0 12 7 31 15 42 28 36 16 49 -16 16 -17 -18 -35 -32
-40 -32 -19 0 -8 26 22 51 18 14 28 28 23 32 -5 3 -20 -3 -33 -14z"/>
<path d="M7500 7930 c0 -5 5 -10 12 -10 6 0 3 -10 -8 -22 l-19 -23 22 19 c18
15 20 22 12 33 -14 16 -19 17 -19 3z"/>
<path d="M9479 7916 c-2 -3 -46 -7 -97 -10 -87 -5 -206 -39 -236 -67 -17 -16
-36 -10 -36 11 0 23 6 23 -130 -11 -115 -29 -196 -55 -297 -96 -90 -37 -122
-61 -66 -50 17 3 31 0 38 -9 6 -9 36 -16 80 -18 39 -2 77 -6 85 -8 8 -1 15 4
15 12 0 21 25 35 35 20 4 -7 15 -10 24 -7 10 4 19 1 22 -8 4 -8 24 -18 45 -21
21 -4 39 -10 39 -15 0 -10 65 -39 88 -39 18 0 41 -29 42 -53 0 -13 -5 -16 -24
-11 -18 4 -27 0 -36 -16 -6 -12 -9 -24 -6 -28 3 -3 6 -2 6 2 0 4 10 -3 23 -14
13 -13 31 -20 45 -17 12 2 22 0 22 -4 0 -14 37 -10 50 5 6 8 17 13 25 10 8 -3
16 4 20 17 5 15 9 18 15 9 4 -7 10 -8 13 -3 3 5 2 15 -4 23 -5 8 -9 18 -9 23
0 12 38 8 44 -5 3 -7 4 -2 3 12 -2 16 -8 24 -17 21 -32 -8 -53 -5 -58 8 -3 9
1 11 17 6 15 -5 21 -2 21 10 0 21 50 10 69 -16 7 -11 20 -19 27 -19 18 0 18 8
-1 26 -8 9 -15 20 -15 25 0 12 17 12 25 -1 3 -5 16 -10 28 -10 21 -1 21 -1 4
-15 -18 -13 -18 -14 2 -25 34 -17 26 -40 -13 -40 -19 0 -36 5 -38 11 -5 14
-38 0 -38 -17 0 -8 5 -14 10 -14 6 0 10 5 10 10 0 6 5 10 10 10 6 0 10 -5 10
-10 0 -39 85 -45 99 -7 5 13 10 16 15 9 4 -6 13 -9 21 -6 9 4 12 0 8 -14 -3
-15 2 -22 25 -30 17 -6 35 -6 43 -1 26 16 71 9 100 -15 22 -18 45 -26 96 -30
88 -8 214 -31 334 -62 99 -24 277 -88 293 -104 6 -6 3 -23 -7 -46 -10 -19 -15
-40 -12 -45 4 -5 2 -9 -4 -9 -5 0 -9 -20 -8 -44 1 -38 5 -45 24 -49 12 -2 20
0 17 4 -3 5 0 9 5 9 6 0 11 -8 11 -18 0 -10 5 -23 12 -30 8 -8 8 -15 -2 -27
-11 -13 -11 -19 2 -31 14 -14 17 -12 34 25 13 31 22 40 34 35 24 -11 94 -12
107 -2 7 6 18 8 25 5 7 -2 23 5 36 17 19 17 22 17 16 3 -7 -20 1 -21 62 -6 49
13 65 40 45 78 -9 16 -8 22 8 30 15 9 18 18 14 56 -4 29 -2 45 5 45 6 0 9 6 6
13 -2 7 10 21 28 31 18 11 35 23 38 26 9 13 98 50 119 50 22 0 29 16 10 22 -6
2 -2 14 10 28 11 14 20 20 21 14 0 -5 -5 -15 -12 -22 -8 -8 -9 -15 -2 -22 7
-7 15 -2 24 15 16 29 24 21 -119 118 -104 70 -349 193 -485 242 -117 43 -324
97 -456 119 -153 25 -516 47 -531 32z m-183 -48 c-3 -13 -5 -26 -5 -30 -2 -20
-18 -5 -18 17 0 13 3 22 8 19 5 -3 9 0 9 5 0 6 2 11 5 11 3 0 3 -10 1 -22z
m94 -8 c0 -5 -4 -10 -10 -10 -5 0 -10 5 -10 10 0 6 5 10 10 10 6 0 10 -4 10
-10z m40 -30 c15 8 18 6 16 -18 -1 -35 -15 -48 -48 -48 -34 1 -50 16 -38 36 8
13 11 12 22 -3 9 -11 20 -16 31 -12 14 6 15 9 2 22 -8 8 -15 20 -14 26 0 9 2
8 6 0 3 -9 10 -10 23 -3z m-70 -80 c0 -5 -4 -10 -9 -10 -6 0 -13 5 -16 10 -3
6 1 10 9 10 9 0 16 -4 16 -10z m130 -20 c0 -5 -4 -10 -9 -10 -6 0 -13 5 -16
10 -3 6 1 10 9 10 9 0 16 -4 16 -10z m-105 -10 c4 -6 11 -8 16 -5 5 4 9 1 9
-4 0 -6 -6 -11 -12 -11 -7 0 -2 -9 12 -20 20 -15 23 -21 13 -31 -10 -10 -13
-10 -13 -1 0 6 -6 9 -12 7 -19 -7 -31 6 -45 43 -10 29 -9 32 7 32 10 0 22 -5
25 -10z m65 -20 c0 -11 -4 -20 -10 -20 -5 0 -10 2 -10 4 0 2 -3 11 -6 20 -4
11 -1 16 10 16 9 0 16 -8 16 -20z m93 -5 c11 -16 13 -26 6 -30 -11 -8 -38 22
-39 43 0 19 13 14 33 -13z m-369 0 c3 -9 0 -15 -9 -15 -9 0 -12 6 -9 15 4 8 7
15 9 15 2 0 5 -7 9 -15z m323 -31 c-3 -3 -12 -4 -19 -1 -8 3 -5 6 6 6 11 1 17
-2 13 -5z m-47 -24 c0 -5 -4 -10 -10 -10 -5 0 -10 5 -10 10 0 6 5 10 10 10 6
0 10 -4 10 -10z m-220 -129 c0 -6 -4 -13 -10 -16 -5 -3 -10 1 -10 9 0 9 5 16
10 16 6 0 10 -4 10 -9z m1198 -413 c-3 -7 -12 -14 -21 -16 -12 -2 -15 1 -11
12 7 19 38 22 32 4z m40 -33 c7 -15 8 -27 2 -30 -16 -10 -27 3 -27 30 0 32 11
32 25 0z m92 -25 c0 -5 -4 -10 -10 -10 -5 0 -10 5 -10 10 0 6 5 10 10 10 6 0
10 -4 10 -10z"/>
<path d="M7440 7886 c0 -8 5 -18 10 -21 6 -4 8 -11 5 -16 -4 -5 4 -9 17 -9 20
1 21 2 6 11 -10 5 -18 16 -18 24 0 8 -4 17 -10 20 -5 3 -10 -1 -10 -9z"/>
<path d="M6765 7850 c3 -5 8 -10 11 -10 2 0 4 5 4 10 0 6 -5 10 -11 10 -5 0
-7 -4 -4 -10z"/>
<path d="M7345 7820 c3 -5 15 -10 25 -10 10 0 22 5 25 10 4 6 -7 10 -25 10
-18 0 -29 -4 -25 -10z"/>
<path d="M6432 7669 c-7 -11 -10 -30 -6 -42 6 -19 5 -20 -8 -9 -13 11 -27 -5
-95 -110 -103 -158 -216 -367 -292 -540 -34 -76 -61 -142 -61 -147 0 -4 -17
-11 -39 -15 -47 -7 -49 -10 -96 -116 -45 -100 -101 -184 -149 -223 -35 -27
-166 -97 -184 -97 -21 0 -44 -42 -66 -123 -32 -116 -25 -132 60 -132 l61 0 -8
-30 c-77 -315 -80 -335 -53 -391 21 -44 83 -74 155 -74 l54 0 1 -258 c1 -274
15 -437 60 -679 100 -544 320 -1071 641 -1531 247 -355 610 -718 968 -967 212
-148 546 -331 740 -405 33 -13 79 -31 102 -41 215 -94 627 -194 963 -235 203
-25 667 -25 870 0 393 47 754 142 1095 288 149 63 335 157 335 168 0 4 6 7 13
7 17 0 191 103 307 181 359 244 688 556 937 890 70 93 82 113 66 111 -25 -4
-41 5 -62 36 -29 43 -36 39 -22 -10 8 -31 8 -35 -5 -24 -8 6 -14 8 -14 4 0 -4
-7 -2 -15 5 -9 7 -13 21 -10 31 4 11 -1 21 -12 27 -14 8 -15 13 -5 25 10 11 9
17 -1 26 -17 13 -28 5 -20 -16 5 -13 3 -13 -16 -2 -23 15 -26 25 -11 34 6 3
10 13 10 22 0 13 -5 12 -25 -7 -14 -13 -25 -29 -25 -36 0 -6 -7 -17 -16 -25
-12 -10 -17 -10 -23 0 -5 7 -10 12 -12 11 -2 -1 -12 2 -21 5 -9 4 -25 2 -35
-4 -16 -9 -15 -10 10 -11 21 0 27 -5 27 -21 0 -13 -8 -23 -21 -26 -15 -4 -19
-11 -15 -28 6 -23 -24 -62 -37 -48 -12 11 -8 23 8 23 18 0 9 26 -11 34 -10 4
-20 -6 -31 -29 -19 -39 -32 -40 -50 -4 -7 13 -18 28 -26 34 -8 5 -16 15 -18
22 -5 16 -69 -11 -68 -29 0 -10 2 -10 6 -1 10 26 43 -5 43 -40 -1 -27 -3 -30
-13 -17 -12 16 -62 50 -72 50 -3 0 -1 -9 5 -20 11 -21 6 -40 -11 -40 -5 0 -14
12 -19 26 -6 14 -15 22 -21 19 -6 -4 -9 0 -7 11 2 11 -4 20 -15 22 -12 3 -19
-5 -23 -28 -6 -25 -10 -29 -27 -24 -16 5 -19 3 -14 -10 9 -22 -3 -20 -38 9
-24 20 -27 27 -17 37 10 10 15 10 22 -2 9 -13 10 -13 10 0 0 12 2 13 9 1 14
-22 51 -4 51 25 0 14 -6 24 -15 24 -8 0 -12 -6 -9 -14 3 -9 -4 -15 -22 -19
-20 -3 -28 0 -31 14 -4 15 -16 7 -69 -43 -34 -33 -62 -66 -61 -72 1 -6 -3 -10
-9 -9 -6 1 -51 -34 -100 -78 -49 -45 -151 -127 -226 -184 -92 -70 -132 -105
-121 -109 18 -7 12 -31 -8 -31 -8 0 -20 -4 -28 -9 -8 -5 -16 -4 -20 3 -5 8
-39 -7 -109 -48 -663 -394 -1454 -537 -2207 -400 -505 92 -982 305 -1390 621
-146 113 -433 396 -543 535 -371 471 -597 1005 -677 1603 -21 157 -30 498 -16
639 6 63 12 115 14 117 2 2 21 -1 43 -7 28 -8 71 -8 159 1 129 12 203 31 248
62 26 18 30 19 60 5 33 -16 72 -25 117 -26 24 -1 25 -4 25 -58 0 -32 -4 -61
-10 -65 -6 -5 -10 -95 -9 -240 1 -185 6 -260 22 -366 45 -281 112 -492 231
-737 250 -509 645 -906 1153 -1155 318 -157 650 -241 1013 -256 481 -21 1006
116 1398 363 100 63 108 82 39 97 -23 6 -42 13 -42 18 0 4 -9 8 -20 8 -11 0
-20 -4 -20 -10 0 -5 -4 -10 -10 -10 -5 0 -10 15 -10 34 0 19 -9 44 -19 57 -18
23 -20 23 -38 7 -26 -24 -63 -13 -63 18 0 27 -19 42 -30 24 -6 -9 -9 -9 -15 0
-4 6 -13 9 -20 6 -14 -5 -39 17 -29 27 3 3 1 15 -5 26 -9 16 -8 26 5 46 9 14
15 27 13 28 -2 2 -11 8 -21 15 -14 11 -33 5 -125 -40 -81 -40 -108 -58 -108
-72 0 -10 -8 -24 -18 -30 -14 -9 -21 -7 -31 6 -11 15 -21 14 -123 -17 -166
-50 -181 -52 -188 -24 -42 182 -41 179 -17 179 9 1 31 7 47 14 l30 14 -27 11
c-30 11 -33 18 -19 39 5 9 0 31 -15 60 -13 26 -24 55 -24 64 0 9 -9 20 -20 23
-32 10 -23 25 15 25 38 0 55 21 36 44 -16 19 -2 27 23 11 11 -8 25 -15 31 -17
5 -2 9 -6 8 -10 -2 -4 7 -10 18 -13 26 -9 70 20 63 40 -4 10 0 15 10 15 9 0
19 -6 22 -14 3 -8 13 -12 26 -8 16 4 19 2 13 -9 -5 -9 -1 -7 11 3 21 19 57 15
85 -8 9 -8 19 -11 22 -8 4 4 9 -1 13 -10 4 -10 -2 -23 -16 -34 -19 -16 -22
-24 -16 -55 4 -20 12 -37 18 -37 5 0 7 7 4 15 -4 10 3 19 19 25 28 11 58 3 49
-12 -9 -15 73 29 163 88 78 50 83 52 93 34 10 -19 11 -19 44 0 33 18 34 18 55
-1 11 -10 27 -19 35 -19 9 0 22 -13 31 -30 13 -26 14 -29 0 -24 -8 4 -15 12
-15 20 0 8 -4 14 -10 14 -5 0 -7 -13 -4 -29 5 -24 2 -30 -15 -36 -23 -7 -55
11 -45 26 3 5 10 7 15 4 5 -4 9 3 9 14 0 24 -15 27 -35 7 -11 -11 -10 -19 12
-50 25 -34 25 -37 10 -54 -23 -26 -22 -31 21 -67 l37 -33 -28 -13 c-32 -15
-40 -9 -40 31 0 42 -32 42 -33 0 -1 -17 -9 -38 -18 -48 -9 -10 -16 -22 -16
-25 0 -13 38 -7 50 7 6 8 17 13 24 10 20 -8 57 -80 50 -98 -7 -18 11 -22 21
-6 5 8 12 7 22 -1 12 -10 16 -10 24 2 5 8 9 20 9 27 0 6 7 12 15 12 8 0 15 -5
15 -10 0 -6 15 -4 36 5 45 18 41 19 47 -5 3 -12 14 -20 27 -20 15 0 25 -10 36
-35 8 -20 12 -40 9 -45 -4 -6 0 -10 9 -10 8 0 16 -4 18 -9 5 -13 48 -24 48
-12 0 6 6 11 13 11 6 1 35 21 62 46 46 41 49 45 33 58 -10 7 -18 23 -18 35 0
20 4 21 49 17 58 -5 57 -6 154 102 69 76 74 85 70 120 -2 20 -8 39 -13 40 -6
2 -10 9 -10 16 0 9 -9 12 -26 8 -16 -3 -23 -9 -20 -19 9 -21 -26 -12 -46 14
-26 31 -23 46 7 39 19 -5 25 -2 25 10 0 13 -6 15 -31 10 -17 -3 -35 -6 -40 -6
-5 0 -6 -6 -3 -14 8 -20 -25 -28 -42 -11 -13 13 -18 12 -36 -4 -19 -18 -48
-19 -48 -1 0 4 -17 11 -37 15 -21 4 -41 12 -45 18 -5 8 -12 6 -25 -5 -10 -8
-37 -18 -60 -22 -33 -5 -44 -3 -51 10 -9 16 -11 16 -32 1 -22 -15 -25 -15 -51
3 -15 11 -32 20 -38 20 -6 0 -11 10 -11 23 0 27 34 34 57 11 8 -7 23 -14 33
-14 16 0 17 4 10 30 -8 26 -5 33 16 46 13 9 24 20 24 25 0 13 -37 11 -45 -1
-4 -6 -14 -10 -23 -8 -10 1 -23 -1 -30 -6 -18 -11 -24 -3 -27 36 -2 18 -4 33
-5 33 -1 0 -3 16 -4 36 -3 38 0 39 41 25 22 -7 22 -8 6 -33 l-17 -26 30 15
c16 9 36 13 44 11 8 -3 1 8 -17 25 -23 21 -30 35 -26 50 4 16 -6 32 -43 66
-26 25 -51 43 -55 40 -19 -11 -109 47 -109 70 0 6 -9 17 -21 24 -14 9 -19 20
-16 33 3 10 2 19 -3 19 -4 0 -24 11 -45 25 -32 23 -41 24 -70 15 -32 -11 -64
-5 -77 14 -4 6 -15 3 -28 -9 -32 -29 -117 -26 -142 5 -13 16 -16 26 -8 34 24
24 11 36 -37 30 -27 -3 -55 -8 -63 -11 -33 -13 -48 -12 -60 2 -7 8 -23 15 -36
15 -22 0 -64 45 -64 69 0 6 -13 14 -30 18 -35 7 -37 12 -10 45 l19 25 -24 23
c-14 13 -25 19 -25 14 0 -5 -5 -1 -11 9 -6 9 -14 15 -20 12 -5 -4 -13 5 -19
19 -9 25 -50 38 -50 16 0 -5 -7 -10 -16 -10 -11 0 -14 6 -9 20 5 16 2 20 -15
20 -11 0 -33 8 -47 17 -69 46 -141 57 -174 27 -27 -25 -49 -11 -49 31 0 29 -8
45 -41 78 -22 23 -48 50 -57 60 -17 19 -52 23 -52 7 0 -7 -6 -7 -19 0 -27 14
-53 13 -90 -6 -25 -12 -35 -13 -46 -4 -8 6 -19 9 -25 5 -5 -3 -10 -1 -10 4 0
6 -11 11 -25 11 -16 0 -25 6 -25 15 0 8 4 15 10 15 20 0 -2 26 -30 37 -31 12
-42 43 -15 43 12 0 14 7 9 28 -14 56 -61 101 -78 73 -4 -5 2 -7 13 -4 23 6 34
-19 18 -41 -7 -9 -30 -23 -51 -30 -48 -16 -88 -7 -126 29 -33 32 -43 32 -28 0
8 -18 8 -29 1 -36 -15 -15 -99 -24 -107 -11 -4 7 -16 5 -36 -4 -16 -9 -47 -14
-67 -12 l-38 3 0 64 c0 46 -4 65 -14 69 -12 4 -13 -8 -8 -66 l7 -71 -34 -6
c-18 -4 -44 -5 -57 -3 -23 3 -24 6 -20 66 2 39 -1 68 -9 77 -19 23 -5 41 44
58 42 14 46 14 55 -1 9 -15 11 -15 28 1 23 20 73 23 92 5 10 -11 15 -9 27 7 8
11 17 19 19 18 14 -8 25 0 25 18 0 13 -11 25 -32 34 -20 8 -38 26 -46 44 -9
19 -27 37 -47 45 -21 9 -36 25 -43 45 -7 20 -18 31 -30 31 -11 0 -25 7 -33 16
-7 9 -29 22 -49 30 -22 9 -40 25 -49 45 -9 20 -26 36 -50 45 -61 24 -66 30
-71 75 -5 41 -7 44 -38 45 -17 1 -39 8 -48 15 -13 11 -17 10 -26 -5 -9 -15
-12 -16 -26 -3 -10 8 -36 20 -59 26 -23 6 -54 18 -69 26 -23 12 -31 12 -53 0
-33 -17 -180 -44 -186 -35 -3 4 -21 11 -40 14 -21 4 -52 23 -75 45 -22 21 -41
36 -43 35 -6 -7 -12 57 -12 146 1 86 3 100 30 150 16 30 28 57 28 60 -1 3 -4
17 -8 31 -4 18 -1 31 10 43 20 19 11 24 -52 29 -34 3 -43 0 -47 -16 -3 -12
-10 -17 -19 -14 -23 9 -27 -28 -5 -42 20 -13 14 -36 -7 -27 -8 3 -15 0 -17 -5
-2 -7 -13 -7 -32 0 -15 6 -32 8 -38 5 -7 -5 -8 6 -4 32 4 21 12 41 17 42 19 7
8 20 -13 14 -17 -4 -20 -2 -15 11 4 10 10 24 14 33 5 14 1 15 -25 9 -30 -6
-32 -5 -32 20 0 17 -7 28 -21 33 -11 5 -20 11 -20 15 2 19 -1 20 -8 2 -5 -11
-14 -20 -22 -20 -8 -1 -13 -7 -11 -15 3 -11 -1 -10 -16 3 -17 16 -23 16 -60 3
-22 -8 -42 -12 -45 -10 -7 7 -230 -17 -249 -27 -11 -6 -26 -51 -47 -141 -17
-73 -42 -173 -55 -223 -13 -49 -27 -104 -31 -121 -5 -29 -10 -32 -53 -37 -26
-3 -47 -4 -48 -4 -1 1 24 105 56 232 31 126 55 238 52 248 -8 31 -41 35 -170
23 -143 -14 -136 -33 -55 154 76 174 75 165 16 163 -7 -1 -13 6 -13 14 0 9 -6
13 -15 9 -18 -6 -45 2 -45 15 0 5 5 9 11 9 6 0 18 9 28 21 14 18 20 19 43 9
21 -10 30 -10 45 1 10 8 19 21 20 29 3 18 -45 41 -78 38 -16 -2 -24 2 -24 12
0 9 10 15 25 15 14 0 25 6 25 13 0 9 -17 15 -52 16 -29 2 -53 0 -53 -4 0 -4
-7 -11 -16 -14 -14 -5 -16 -1 -11 24 4 17 2 30 -3 30 -6 0 -10 11 -10 25 0 15
-6 25 -15 25 -11 0 -108 51 -123 65 -7 7 -22 88 -18 93 3 3 13 -1 21 -8 12
-10 19 -10 28 -1 9 9 9 14 -2 20 -11 7 -11 13 3 32 9 13 16 31 16 41 0 22 13
23 30 3 7 -8 9 -15 5 -15 -5 0 -1 -8 7 -17 18 -21 17 -118 -1 -136 -19 -19
-12 -29 17 -23 15 3 21 3 15 0 -7 -3 -13 -10 -13 -15 0 -13 28 -11 32 2 2 6
14 2 30 -10 31 -25 34 -22 43 42 6 39 11 47 29 48 11 1 1 6 -24 11 -41 9 -59
21 -60 41 0 14 58 7 64 -8 3 -8 15 -15 26 -15 29 0 26 42 -5 76 -18 19 -23 34
-19 48 17 53 17 52 5 36 -8 -12 -11 -12 -17 4 -4 11 -2 21 6 26 8 5 4 15 -16
34 -16 14 -32 26 -35 26 -4 0 -10 11 -13 25 -4 14 -18 31 -31 37 -14 6 -27 19
-30 30 -4 10 -10 18 -15 18 -5 0 -7 -7 -4 -15 5 -11 2 -13 -10 -9 -14 5 -15 2
-6 -21 14 -36 13 -37 -11 -33 -34 5 -47 33 -26 56 17 18 17 21 2 36 -9 9 -14
20 -11 25 7 11 -3 41 -13 41 -3 0 -12 -9 -19 -21z m32 -245 c10 -26 -3 -54
-25 -54 -22 0 -22 -2 -8 39 12 34 24 40 33 15z m126 -62 c-15 -5 -41 18 -34
30 3 5 15 1 26 -9 11 -10 15 -19 8 -21z m-204 20 c14 -9 12 -74 -2 -79 -7 -2
-10 5 -7 20 3 14 0 28 -6 31 -12 8 -15 36 -3 36 4 0 12 -4 18 -8z m241 -68
c-9 -9 -28 6 -21 18 4 6 10 6 17 -1 6 -6 8 -13 4 -17z m-141 -311 c-11 -11
-19 6 -11 24 8 17 8 17 12 0 3 -10 2 -21 -1 -24z m94 -70 c0 -7 -4 -13 -10
-13 -5 0 -10 12 -10 28 0 21 2 24 10 12 5 -8 10 -21 10 -27z m95 -133 c8 0 15
-4 15 -10 0 -13 -16 -13 -40 0 -12 6 -17 16 -13 26 5 15 7 15 15 0 5 -9 16
-16 23 -16z m-646 -157 c-21 -89 -25 -127 -9 -103 5 8 10 10 10 5 0 -6 -5 -16
-11 -22 -8 -8 -8 -17 0 -31 15 -29 14 -34 -8 -27 -16 5 -22 -1 -30 -32 -23
-82 -7 -107 64 -105 45 2 103 19 75 23 -8 1 -19 1 -23 0 -8 -1 1 69 10 79 2 2
7 0 11 -6 4 -6 15 -13 25 -17 9 -3 17 -14 17 -23 0 -10 2 -15 5 -12 13 13 -8
58 -26 58 -13 0 -19 7 -19 21 0 17 -3 19 -14 10 -11 -9 -16 -9 -21 0 -4 6 -3
14 4 18 7 5 2 19 -14 43 -28 41 -30 48 -15 48 6 0 10 -7 10 -15 0 -8 5 -15 10
-15 6 0 10 -7 10 -15 0 -9 10 -15 23 -16 46 -3 52 -4 52 -15 0 -6 8 -18 18
-28 20 -21 21 -28 5 -44 -7 -7 -8 -12 -2 -12 14 0 36 16 35 26 0 5 9 12 19 16
15 6 18 3 13 -10 -4 -9 -11 -20 -17 -24 -8 -6 -7 -11 3 -17 12 -8 37 -63 45
-98 4 -20 16 -28 16 -10 0 9 4 18 10 22 12 7 51 -14 69 -40 8 -10 32 -37 53
-58 41 -42 47 -57 23 -57 -8 0 -15 5 -15 11 0 5 -4 8 -9 4 -5 -3 -13 -1 -16 5
-4 6 -14 10 -23 9 -37 -3 -52 2 -52 19 0 14 -2 15 -9 2 -6 -8 -7 -19 -4 -25 3
-5 -8 5 -24 24 -18 21 -34 31 -41 27 -7 -4 -10 -12 -7 -17 4 -5 2 -9 -4 -9 -5
0 -11 12 -13 28 -4 33 -29 36 -43 5 -9 -22 -25 -31 -25 -15 1 22 14 52 24 52
6 0 11 18 11 45 1 27 -3 44 -10 42 -10 -4 -12 -10 -14 -53 -1 -16 -7 -22 -23
-22 -13 0 -41 -7 -63 -15 -22 -9 -57 -16 -77 -17 -45 0 -86 -18 -92 -39 -17
-58 -78 -322 -83 -356 -9 -70 -4 -71 235 -46 114 12 218 21 232 21 l25 -1 -30
-25 c-16 -13 -46 -29 -65 -35 -56 -16 -597 -68 -627 -60 -42 11 -41 56 8 252
23 94 42 183 42 197 0 38 -29 55 -85 47 -42 -5 -48 -3 -47 12 1 39 17 53 106
98 119 59 189 133 263 278 53 105 61 112 126 116 l21 1 -18 -77z m136 -113 c3
-5 1 -10 -4 -10 -6 0 -11 5 -11 10 0 6 2 10 4 10 3 0 8 -4 11 -10z m1309 -21
c-9 -10 -21 -16 -26 -13 -11 7 24 43 35 37 5 -3 1 -13 -9 -24z m-1416 -28
c-12 -4 -29 20 -21 32 3 4 11 0 18 -10 9 -12 10 -19 3 -22z m182 -1 c0 -5 -4
-10 -10 -10 -5 0 -10 5 -10 10 0 6 5 10 10 10 6 0 10 -4 10 -10z m1120 -29 c0
-10 -74 -322 -94 -397 -11 -40 -11 -57 -2 -75 15 -31 45 -34 171 -20 55 6 122
14 150 17 l50 5 -24 -25 c-13 -14 -42 -32 -65 -40 -48 -17 -484 -61 -519 -52
-50 12 -49 33 20 312 l64 261 92 10 c127 14 157 14 157 4z m385 -1 c3 -5 1
-10 -4 -10 -6 0 -11 5 -11 10 0 6 2 10 4 10 3 0 8 -4 11 -10z m-36 -41 c-9 -5
-15 -4 -18 2 -2 6 3 15 10 20 9 5 15 4 18 -2 2 -6 -3 -15 -10 -20z m-944 -219
c-30 -118 -55 -227 -55 -242 0 -48 22 -58 108 -51 l77 6 -20 -23 c-23 -26 -71
-52 -100 -56 -11 -1 -76 -5 -145 -9 l-125 -8 -27 26 c-21 20 -28 36 -28 64 0
30 104 470 113 480 3 2 250 30 254 28 1 0 -23 -97 -52 -215z m845 150 c6 -11
8 -25 5 -30 -3 -5 -1 -11 4 -14 12 -8 -9 -54 -27 -61 -20 -8 -36 5 -23 18 6 6
11 19 11 28 0 10 6 19 13 22 10 4 10 7 0 18 -15 15 -17 39 -3 39 5 0 14 -9 20
-20z m-85 0 c3 -5 1 -18 -4 -27 -6 -10 -11 -13 -11 -6 0 6 -3 18 -6 27 -7 17
11 22 21 6z m52 -17 c2 -6 -3 -13 -12 -16 -10 -5 -15 0 -15 14 0 21 21 22 27
2z m-87 -73 c0 -5 -7 -10 -15 -10 -8 0 -15 5 -15 10 0 6 7 10 15 10 8 0 15 -4
15 -10z m-1271 -29 c-15 -5 -22 6 -14 19 6 9 10 9 16 -1 5 -8 4 -15 -2 -18z
m-119 9 c0 -5 -5 -10 -11 -10 -5 0 -7 5 -4 10 3 6 8 10 11 10 2 0 4 -4 4 -10z
m-6 -82 c-3 -4 -12 -8 -20 -8 -12 0 -12 4 -2 20 8 13 15 16 19 8 4 -7 5 -16 3
-20z m301 11 c-7 -10 -35 -1 -35 11 0 5 9 6 20 3 11 -3 17 -9 15 -14z m1126
-16 c34 -20 36 -36 9 -63 -24 -24 -35 -20 -45 17 -3 15 -11 31 -17 34 -12 8
-2 29 14 29 5 0 23 -8 39 -17z m-1141 -18 c-7 -9 -15 -13 -19 -10 -3 3 1 10 9
15 21 14 24 12 10 -5z m-420 1 c0 -3 -4 -8 -10 -11 -5 -3 -10 -1 -10 4 0 6 5
11 10 11 6 0 10 -2 10 -4z m810 -72 c0 -2 -7 -4 -15 -4 -8 0 -15 4 -15 10 0 5
7 7 15 4 8 -4 15 -8 15 -10z m1470 -164 c0 -5 -4 -10 -10 -10 -5 0 -10 5 -10
10 0 6 5 10 10 10 6 0 10 -4 10 -10z m-1660 -120 c0 -5 -5 -10 -11 -10 -5 0
-7 5 -4 10 3 6 8 10 11 10 2 0 4 -4 4 -10z m1193 -11 c-4 -12 -11 -18 -20 -15
-8 3 -20 6 -26 6 -12 1 32 29 45 30 3 0 4 -9 1 -21z m183 -27 c-31 -4 -63 19
-52 37 4 6 20 2 44 -12 l37 -22 -29 -3z m-59 10 c10 -18 4 -45 -11 -43 -20 3
-24 -1 -19 -19 6 -21 -11 -28 -23 -9 -4 8 -9 7 -15 -2 -8 -11 -12 -10 -24 5
-8 11 -15 16 -15 12 0 -4 -5 -4 -11 0 -8 4 -6 10 7 17 12 7 19 7 22 -1 2 -6
17 4 34 23 35 40 39 42 55 17z m-1877 -46 c0 -3 -4 -8 -10 -11 -5 -3 -10 -1
-10 4 0 6 5 11 10 11 6 0 10 -2 10 -4z m2062 -51 c-3 -18 -11 -25 -28 -25 -13
0 -24 4 -24 9 0 24 14 41 35 41 18 0 21 -4 17 -25z m-928 -21 c9 -3 16 -12 16
-20 0 -8 5 -13 11 -11 16 3 33 -28 25 -48 -6 -17 -7 -17 -20 1 -8 10 -20 19
-28 19 -7 1 -12 6 -10 13 1 7 -6 12 -16 12 -11 0 -18 7 -18 20 0 20 12 25 40
14z m568 -50 l67 -7 -6 -111 c-9 -170 20 -370 88 -624 5 -16 -181 -87 -190
-74 -3 5 -19 16 -36 25 l-30 16 27 1 c26 0 26 1 15 38 -6 20 -14 39 -17 42 -3
3 -5 13 -6 23 -2 48 -5 57 -19 57 -15 0 -17 20 -2 31 4 3 2 28 -4 56 -9 40
-16 51 -31 50 -10 -1 -18 -9 -18 -18 0 -10 -10 -19 -25 -21 -25 -5 -30 3 -27
45 1 9 -3 17 -8 17 -6 0 -10 -7 -10 -16 0 -14 -3 -14 -16 -4 -12 11 -18 11
-31 -2 -14 -15 -13 -17 7 -28 18 -10 24 -9 31 1 5 8 9 9 9 3 0 -6 -9 -23 -20
-37 -11 -14 -20 -29 -20 -34 0 -9 -36 -43 -46 -43 -3 0 -4 7 0 15 6 18 -29 21
-40 4 -4 -8 -9 -7 -14 2 -7 10 -11 10 -24 0 -25 -21 -19 -3 9 25 30 30 34 45
4 18 -17 -15 -23 -16 -40 -6 -11 7 -19 8 -19 2 0 -5 5 -10 11 -10 5 0 7 -5 4
-10 -5 -8 -12 -7 -22 2 -9 7 -26 12 -37 10 -20 -3 -20 -2 2 17 16 14 25 35 29
72 5 39 11 53 25 57 10 2 18 8 18 13 0 5 7 9 15 9 9 0 12 6 8 16 -4 10 -1 15
8 13 8 -1 22 1 32 6 17 7 17 9 2 32 -16 24 -16 25 4 18 12 -3 21 -2 21 3 0 5
-10 12 -21 15 -15 4 -20 11 -16 21 4 9 1 16 -5 16 -8 0 -7 5 2 14 19 17 74 31
65 16 -3 -5 2 -13 12 -16 10 -3 26 -10 35 -15 10 -5 24 -9 31 -9 8 0 23 -11
33 -25 10 -14 24 -25 31 -25 17 0 17 67 1 73 -10 4 -10 7 0 18 8 9 12 47 12
114 0 56 3 105 7 108 8 9 49 9 135 1z m118 -24 c0 -5 -7 -10 -15 -10 -8 0 -15
5 -15 10 0 6 7 10 15 10 8 0 15 -4 15 -10z m-560 -55 c0 -8 3 -21 6 -29 5 -12
2 -15 -10 -10 -10 4 -16 1 -16 -9 0 -20 22 -35 28 -19 6 19 23 14 20 -5 -2
-12 3 -18 15 -17 9 1 17 -2 17 -6 0 -4 11 -10 25 -12 30 -6 34 8 5 17 -11 3
-20 11 -20 16 0 11 56 -16 65 -32 8 -12 2 -20 -18 -23 -8 -1 -25 -9 -39 -18
-23 -15 -26 -15 -42 0 -16 16 -18 16 -30 0 -14 -20 -36 -24 -36 -8 0 6 7 10
15 10 16 0 16 17 0 36 -13 15 -26 8 -19 -10 7 -19 -12 -29 -32 -18 -11 6 -13
11 -5 16 6 4 11 2 11 -5 0 -27 15 4 16 34 1 18 5 40 9 50 4 10 3 23 -3 29 -6
6 -8 16 -6 23 7 16 44 7 44 -10z m195 -25 c3 -6 -4 -10 -17 -10 -18 0 -20 2
-8 10 19 12 18 12 25 0z m870 -14 c15 -11 17 -17 7 -28 -6 -8 -10 -17 -7 -20
3 -2 -1 -5 -7 -6 -7 -1 -30 -5 -50 -8 -41 -7 -44 -2 -25 39 17 36 51 46 82 23z
m-856 -53 c12 -42 3 -67 -19 -53 -13 8 -13 10 0 10 11 0 11 3 2 12 -14 14 -16
68 -2 68 5 0 14 -16 19 -37z m643 20 c9 -10 19 -28 22 -40 6 -19 13 -22 64
-20 l57 2 5 -65 c4 -51 9 -66 23 -68 14 -3 17 4 17 33 0 22 -6 38 -15 41 -8 4
-15 17 -15 30 0 28 31 44 84 44 l34 0 7 -67 c4 -36 12 -75 18 -85 9 -14 8 -21
-4 -34 -20 -19 -99 -32 -99 -15 0 8 -9 7 -30 -4 -16 -8 -35 -15 -43 -15 -29 0
-65 39 -71 77 -3 21 -7 45 -8 53 -5 26 -31 47 -54 42 -15 -3 -27 3 -36 17 -23
38 -30 22 -22 -56 5 -60 11 -81 28 -94 18 -15 19 -19 6 -34 -11 -14 -26 -16
-77 -13 -60 4 -105 24 -75 35 8 3 12 28 12 76 0 90 -9 106 -38 72 -39 -44 -77
-2 -48 53 15 29 20 30 108 39 135 15 134 15 150 -4z m60 -35 c-10 -10 -15 -10
-22 2 -6 9 -5 17 3 22 18 11 33 -10 19 -24z m-1042 -79 c0 -6 -4 -7 -10 -4 -5
3 -10 11 -10 16 0 6 5 7 10 4 6 -3 10 -11 10 -16z m150 7 c0 -3 -4 -8 -10 -11
-5 -3 -10 -1 -10 4 0 6 5 11 10 11 6 0 10 -2 10 -4z m35 -6 c3 -5 1 -10 -4
-10 -6 0 -11 5 -11 10 0 6 2 10 4 10 3 0 8 -4 11 -10z m1125 -162 c0 -5 -7 -3
-15 6 -8 8 -15 18 -15 22 0 3 7 1 15 -6 8 -7 15 -17 15 -22z m-2 -16 c15 -2
22 -8 22 -22 0 -17 3 -19 18 -11 13 7 23 6 31 -2 9 -9 14 -9 19 0 9 14 30 -6
52 -47 10 -18 7 -22 -27 -36 -21 -9 -39 -12 -41 -6 -1 5 -15 7 -29 4 -23 -4
-25 -2 -19 14 14 35 11 39 -21 42 -18 2 -39 12 -46 23 -8 10 -17 16 -20 13 -3
-4 -14 -4 -23 0 -12 5 -13 10 -6 19 10 12 25 13 90 9z m-458 -21 c0 -3 -10
-12 -22 -20 -16 -9 -19 -9 -11 -1 6 7 9 19 6 26 -4 10 0 12 11 8 9 -3 16 -9
16 -13z m50 5 c0 -3 -4 -8 -10 -11 -5 -3 -10 -1 -10 4 0 6 5 11 10 11 6 0 10
-2 10 -4z m170 -6 c0 -5 -4 -10 -10 -10 -5 0 -10 5 -10 10 0 6 5 10 10 10 6 0
10 -4 10 -10z m-965 -10 c3 -5 1 -10 -4 -10 -6 0 -11 5 -11 10 0 6 2 10 4 10
3 0 8 -4 11 -10z m867 -35 c18 -24 39 -44 46 -45 6 0 21 -9 32 -20 10 -10 37
-28 59 -39 22 -12 42 -25 46 -30 10 -17 -19 -52 -47 -58 -15 -3 -25 -9 -22
-14 3 -5 0 -9 -5 -9 -6 0 -11 6 -11 13 0 14 -52 57 -70 57 -5 0 -10 5 -10 11
0 5 4 8 9 4 12 -7 26 15 15 24 -24 17 -84 93 -79 100 2 5 -2 14 -10 21 -19 16
-19 30 0 30 8 0 29 -20 47 -45z m-947 5 c3 -5 1 -10 -4 -10 -6 0 -11 5 -11 10
0 6 2 10 4 10 3 0 8 -4 11 -10z m2105 -46 c0 -16 -9 -18 -29 -5 -7 5 -11 14
-7 19 9 15 36 4 36 -14z m-2082 2 c-7 -8 -15 -12 -17 -11 -5 6 10 25 20 25 5
0 4 -6 -3 -14z m1477 -56 c3 -5 1 -10 -4 -10 -6 0 -11 5 -11 10 0 6 2 10 4 10
3 0 8 -4 11 -10z m-250 -34 c6 -7 37 -17 70 -22 54 -8 60 -12 63 -35 3 -25 -7
-58 -30 -94 -25 -37 -34 -43 -51 -33 -21 11 -23 29 -2 22 8 -4 15 -1 15 5 0 6
-7 11 -15 11 -8 0 -15 4 -15 8 0 5 -8 18 -17 28 -14 15 -30 19 -71 18 -46 -1
-51 0 -40 14 11 13 10 15 -4 9 -10 -3 -18 -4 -18 -1 0 8 33 58 45 67 6 6 5 10
-4 14 -11 4 -11 7 0 13 14 10 60 -5 74 -24z m-1015 4 c0 -5 -4 -10 -10 -10 -5
0 -10 5 -10 10 0 6 5 10 10 10 6 0 10 -4 10 -10z m1220 6 c0 -3 -4 -8 -10 -11
-5 -3 -10 -1 -10 4 0 6 5 11 10 11 6 0 10 -2 10 -4z m100 -30 c0 -3 -9 -6 -20
-6 -11 0 -20 -4 -20 -10 0 -5 -4 -10 -10 -10 -10 0 -3 27 13 47 7 10 12 9 23
-2 8 -7 14 -16 14 -19z m-1480 4 c0 -5 -7 -10 -15 -10 -8 0 -15 5 -15 10 0 6
7 10 15 10 8 0 15 -4 15 -10z m310 -2 c0 -10 2 -10 8 0 5 7 16 10 26 6 14 -5
14 -9 4 -22 -11 -13 -11 -14 0 -8 11 7 12 4 3 -13 -15 -27 -34 -28 -26 0 7 20
6 20 -19 -2 -14 -12 -23 -26 -19 -32 3 -5 8 -4 13 3 5 8 9 7 14 -6 11 -29 -5
-30 -29 -1 -13 15 -31 27 -39 27 -8 0 -18 5 -21 10 -4 6 5 10 19 10 14 0 26
-4 26 -10 0 -18 18 -10 23 10 3 11 1 20 -5 20 -5 0 -6 5 -3 10 9 14 25 12 25
-2z m1235 -97 c-10 -31 -34 -9 -27 25 4 23 6 24 19 11 10 -9 13 -23 8 -36z
m63 0 c-3 -24 5 -40 20 -45 11 -4 24 -16 31 -29 15 -27 65 -57 96 -57 14 0 29
9 35 20 13 25 33 16 25 -11 -4 -13 -2 -19 9 -19 9 0 16 -7 16 -15 0 -9 13 -24
29 -33 43 -24 74 -103 36 -88 -9 3 -15 1 -14 -7 1 -6 1 -21 0 -32 -1 -16 -3
-17 -10 -5 -6 8 -7 18 -5 22 3 5 -6 22 -19 38 -14 16 -27 34 -29 40 -2 6 -16
12 -31 14 -15 1 -33 8 -39 14 -18 18 -37 14 -63 -13 -16 -15 -25 -19 -25 -11
0 20 -101 27 -116 9 -8 -9 -21 -12 -36 -8 -21 5 -24 11 -20 33 3 15 10 30 16
34 8 5 7 8 -1 8 -21 0 -15 20 16 48 30 27 58 82 42 82 -6 0 -7 23 -2 49 2 7
40 -31 39 -38z m-1248 7 c0 -13 -23 -5 -28 10 -2 7 2 10 12 6 9 -3 16 -11 16
-16z m10 -62 c0 -11 -19 -15 -25 -6 -3 5 1 10 9 10 9 0 16 -2 16 -4z m50 -16
c0 -5 -5 -10 -11 -10 -5 0 -7 5 -4 10 3 6 8 10 11 10 2 0 4 -4 4 -10z m298
-39 c6 -1 12 -5 12 -11 0 -5 -5 -9 -12 -7 -6 1 -13 -5 -15 -14 -3 -13 2 -15
22 -12 15 3 25 1 25 -6 0 -6 -4 -11 -10 -11 -18 0 -10 -22 10 -27 27 -7 25
-37 -3 -56 -19 -12 -24 -12 -35 0 -16 16 -36 7 -28 -13 4 -11 2 -12 -15 -1
-14 9 -22 9 -27 1 -4 -6 -19 -10 -34 -10 -20 1 -28 -3 -28 -15 0 -14 -4 -15
-23 -6 -17 8 -22 17 -19 34 2 13 11 23 18 23 8 0 14 5 14 11 0 6 6 9 14 6 16
-7 31 8 39 38 5 19 5 19 12 -2 11 -34 37 -30 29 5 -4 15 -10 31 -14 36 -11 12
20 44 39 41 9 -2 22 -4 29 -4z m-193 -29 c-3 -3 -11 0 -18 7 -9 10 -8 11 6 5
10 -3 15 -9 12 -12z m30 -52 c-3 -5 -13 -6 -21 -3 -12 4 -13 8 -3 14 15 9 32
2 24 -11z m47 8 c9 -23 -2 -40 -17 -28 -8 6 -11 18 -8 26 6 17 19 18 25 2z
m1373 2 c-3 -5 -13 -10 -21 -10 -8 0 -12 5 -9 10 3 6 13 10 21 10 8 0 12 -4 9
-10z m-1105 -40 c0 -5 -10 -10 -22 -10 -19 0 -20 2 -8 10 19 13 30 13 30 0z
m1098 -36 c-10 -10 -28 6 -28 24 0 15 1 15 17 -1 9 -9 14 -19 11 -23z m128 2
c18 -14 17 -15 -11 -11 -16 2 -34 4 -40 4 -5 1 -3 6 5 11 20 13 23 13 46 -4z
m-1306 -5 c0 -10 -30 -24 -37 -17 -3 3 -2 9 2 15 8 13 35 15 35 2z m-80 -45
c0 -3 -4 -8 -10 -11 -5 -3 -10 -1 -10 4 0 6 5 11 10 11 6 0 10 -2 10 -4z
m1110 -10 c0 -3 -4 -8 -10 -11 -5 -3 -10 -1 -10 4 0 6 5 11 10 11 6 0 10 -2
10 -4z m174 -12 c4 -9 4 -19 2 -22 -10 -9 -36 8 -36 23 0 20 26 19 34 -1z
m-1030 -263 c73 -87 172 -183 264 -255 34 -27 62 -52 62 -55 0 -8 -104 -160
-110 -161 -12 0 -184 145 -258 219 -148 148 -326 387 -300 402 7 4 46 28 87
52 l75 45 58 -85 c32 -47 87 -120 122 -162z m1211 223 c21 -8 47 -13 59 -10
16 4 22 0 23 -12 1 -9 3 -26 5 -37 2 -16 -2 -20 -24 -20 -15 1 -30 -5 -33 -13
-3 -8 0 -10 8 -6 7 5 6 0 -3 -10 -8 -11 -16 -14 -18 -7 -2 6 -8 9 -13 5 -5 -3
-9 0 -9 7 0 10 -3 10 -12 1 -17 -17 -33 -15 -18 3 7 8 21 15 31 15 11 0 19 5
19 11 0 7 -10 9 -24 7 -16 -3 -23 -1 -19 7 2 8 -8 14 -26 17 -17 3 -31 1 -31
-4 0 -4 -11 -8 -25 -8 -14 0 -25 -4 -25 -10 0 -5 -7 -10 -15 -10 -18 0 -20 20
-2 20 6 0 1 9 -12 19 -32 25 -20 41 23 31 22 -5 41 -3 57 6 31 17 39 17 84 -2z
m-205 -34 c0 -16 -45 -19 -68 -4 -22 14 -22 16 -6 28 14 11 22 10 46 -1 15 -8
28 -18 28 -23z m-973 -26 c-3 -3 -12 -4 -19 -1 -8 3 -5 6 6 6 11 1 17 -2 13
-5z m28 -3 c3 -5 1 -12 -5 -16 -5 -3 -10 1 -10 9 0 18 6 21 15 7z m1095 -52
c0 -5 -4 -9 -10 -9 -5 0 -10 7 -10 16 0 8 5 12 10 9 6 -3 10 -10 10 -16z m245
-9 c-3 -5 -10 -10 -16 -10 -5 0 -9 5 -9 10 0 6 7 10 16 10 8 0 12 -4 9 -10z
m-315 -57 c-1 -24 -2 -26 -11 -10 -5 9 -7 22 -4 27 10 17 15 11 15 -17z m621
-20 c1 -17 2 -17 6 0 2 9 9 17 14 17 6 0 8 -4 4 -9 -3 -5 -1 -12 4 -16 6 -3 8
-12 5 -20 -3 -7 4 -18 15 -25 12 -6 21 -15 21 -21 0 -6 -4 -7 -10 -4 -5 3 -10
-3 -10 -14 0 -25 35 -37 56 -20 9 7 14 23 11 36 -3 15 1 23 9 23 8 0 14 -7 14
-15 0 -8 5 -15 10 -15 6 0 10 5 10 10 0 14 47 13 56 -1 4 -8 0 -9 -15 -4 -25
8 -25 9 -6 -44 12 -34 12 -46 2 -62 -12 -20 -27 -25 -27 -10 0 5 -25 12 -56
16 -41 5 -54 10 -50 20 3 9 0 12 -10 8 -7 -3 -14 -10 -14 -15 0 -5 -6 -8 -12
-5 -8 2 -12 16 -10 35 2 18 -1 32 -7 32 -6 0 -11 -8 -11 -19 0 -36 -85 -70
-111 -44 -6 6 -1 20 14 37 l24 28 6 -23 c5 -18 9 -20 20 -11 8 7 18 8 22 4 5
-4 5 1 2 10 -3 10 -2 20 3 23 7 4 7 13 1 24 -9 15 -9 39 -2 84 2 15 21 6 22
-10z m-273 -35 c14 -14 16 -44 3 -52 -11 -7 -44 42 -36 54 8 13 18 13 33 -2z
m1029 -35 c2 -6 -11 -14 -29 -18 -20 -5 -33 -4 -36 3 -2 6 -10 8 -18 5 -8 -3
-14 0 -14 7 0 7 8 10 19 7 10 -2 25 -1 32 4 18 11 41 7 46 -8z m199 -50 c-6
-6 -55 29 -56 40 0 5 14 -1 31 -13 16 -12 28 -24 25 -27z m-696 -3 c0 -5 -4
-10 -10 -10 -5 0 -10 5 -10 10 0 6 5 10 10 10 6 0 10 -4 10 -10z m-430 -30 c0
-17 -2 -19 -14 -8 -14 13 -12 28 5 28 5 0 9 -9 9 -20z m-128 -25 c4 -17 3 -34
-2 -39 -15 -15 -40 13 -40 46 0 39 30 35 42 -7z m649 -1 c16 -41 9 -48 -21
-19 -16 16 -30 32 -30 37 0 16 44 1 51 -18z m74 -8 l26 -24 -23 -16 c-25 -18
-30 -13 -42 37 -8 33 5 35 39 3z m-558 -38 c-3 -8 -6 -5 -6 6 -1 11 2 17 5 13
3 -3 4 -12 1 -19z m163 12 c0 -5 -4 -10 -10 -10 -5 0 -10 5 -10 10 0 6 5 10
10 10 6 0 10 -4 10 -10z m-189 -20 c5 -12 -6 -38 -28 -69 -4 -6 -43 31 -43 41
0 4 7 8 15 8 20 0 19 10 -2 27 -16 12 -14 13 17 11 20 -2 38 -10 41 -18z m949
1 c0 -4 11 -20 25 -34 31 -30 20 -41 -31 -31 -45 8 -63 43 -30 61 25 15 36 16
36 4z m-560 -60 c0 -6 -4 -13 -10 -16 -5 -3 -10 1 -10 9 0 9 5 16 10 16 6 0
10 -4 10 -9z m425 -41 c3 -5 -1 -10 -10 -10 -9 0 -13 5 -10 10 3 6 8 10 10 10
2 0 7 -4 10 -10z m323 -29 c3 -8 -1 -12 -9 -9 -7 2 -15 10 -17 17 -3 8 1 12 9
9 7 -2 15 -10 17 -17z m58 -38 c-10 -10 -19 5 -10 18 6 11 8 11 12 0 2 -7 1
-15 -2 -18z m542 -18 c15 -34 15 -40 -1 -26 -8 6 -16 9 -18 7 -2 -2 -5 7 -5
20 -2 31 10 31 24 -1z m-287 -64 c-12 -12 -27 -17 -40 -14 -40 10 -20 31 32
32 27 1 27 1 8 -18z m49 5 c0 -3 -4 -8 -10 -11 -5 -3 -10 -1 -10 4 0 6 5 11
10 11 6 0 10 -2 10 -4z m158 -25 c-2 -20 4 -31 17 -31 8 0 15 -4 15 -10 0 -5
-8 -10 -17 -10 -20 1 -74 29 -58 30 6 0 1 6 -10 12 -19 11 -19 11 0 18 21 7
55 2 53 -9z m-2195 -122 c51 -10 161 -24 245 -31 l152 -12 0 -100 0 -99 -127
6 c-205 10 -397 49 -583 117 -125 45 -119 34 -74 137 l38 88 129 -43 c71 -24
170 -52 220 -63z m2179 39 c-9 -9 -12 -7 -12 12 0 19 3 21 12 12 9 -9 9 -15 0
-24z m-162 -41 c0 -5 -13 -7 -30 -3 -20 3 -30 1 -30 -6 0 -9 -3 -8 -12 1 -11
10 -8 16 10 31 22 18 24 18 42 2 11 -9 20 -21 20 -25z m-290 -37 c0 -5 -5 -10
-11 -10 -5 0 -7 5 -4 10 3 6 8 10 11 10 2 0 4 -4 4 -10z m-347 -116 c5 -9 17
-12 33 -8 14 4 24 2 24 -5 0 -6 -5 -11 -11 -11 -8 0 -10 -14 -6 -45 6 -42 5
-45 -17 -45 -13 0 -29 7 -36 15 -11 13 -10 14 4 9 9 -4 4 7 -13 23 -17 17 -37
33 -46 36 -18 8 -20 43 -2 51 19 8 61 -4 70 -20z m-644 -58 c7 -8 8 -22 4 -34
-8 -20 -8 -20 -37 3 -16 12 -26 27 -23 32 9 14 45 13 56 -1z m601 -31 c0 -8
-4 -15 -10 -15 -5 0 -10 7 -10 15 0 8 5 15 10 15 6 0 10 -7 10 -15z m260 0 c0
-8 -4 -15 -9 -15 -13 0 -22 16 -14 24 11 11 23 6 23 -9z m-820 -75 c0 -5 -4
-10 -10 -10 -5 0 -10 5 -10 10 0 6 5 10 10 10 6 0 10 -4 10 -10z m40 -120 c0
-5 -2 -10 -4 -10 -3 0 -8 5 -11 10 -3 6 -1 10 4 10 6 0 11 -4 11 -10z m2448
-72 c-2 -6 -13 -16 -24 -22 -10 -6 -22 -15 -26 -21 -4 -5 -10 -6 -14 -3 -3 4
7 18 22 32 31 27 48 33 42 14z m-120 -79 c10 -15 20 -19 37 -15 21 5 23 3 22
-29 -1 -38 -16 -47 -24 -15 -3 11 -9 17 -14 15 -4 -3 -6 -12 -2 -20 5 -16 -5
-19 -31 -9 -9 3 -16 15 -16 25 0 10 -3 19 -7 19 -5 0 -14 4 -22 9 -12 8 -12
12 -2 25 19 22 44 20 59 -5z m67 -107 c-3 -3 -11 0 -18 7 -9 10 -8 11 6 5 10
-3 15 -9 12 -12z m-235 -166 c0 -3 -4 -8 -10 -11 -5 -3 -10 -1 -10 4 0 6 5 11
10 11 6 0 10 -2 10 -4z m-655 -126 c18 -20 17 -20 -8 -20 -42 0 -59 10 -46 26
16 19 33 17 54 -6z m182 -35 c8 -8 25 -15 38 -15 37 0 20 -28 -23 -40 -29 -8
-39 -6 -54 7 -16 14 -18 14 -23 0 -7 -18 -79 -17 -97 1 -17 17 -6 23 47 27 26
1 52 8 58 14 8 8 8 11 -1 11 -7 0 -12 5 -12 11 0 15 48 3 67 -16z m-1047 -395
c0 -5 -5 -10 -11 -10 -5 0 -7 5 -4 10 3 6 8 10 11 10 2 0 4 -4 4 -10z m-145
-30 c3 -5 1 -10 -4 -10 -6 0 -11 5 -11 10 0 6 2 10 4 10 3 0 8 -4 11 -10z
m885 -70 c0 -5 -4 -10 -10 -10 -5 0 -10 5 -10 10 0 6 5 10 10 10 6 0 10 -4 10
-10z m120 -60 c0 -5 -5 -10 -11 -10 -5 0 -7 5 -4 10 3 6 8 10 11 10 2 0 4 -4
4 -10z m-2290 -30 c0 -5 -2 -10 -4 -10 -3 0 -8 5 -11 10 -3 6 -1 10 4 10 6 0
11 -4 11 -10z m-940 -64 c0 -3 -4 -8 -10 -11 -5 -3 -10 -1 -10 4 0 6 5 11 10
11 6 0 10 -2 10 -4z m1425 -56 c3 -5 1 -10 -4 -10 -6 0 -11 5 -11 10 0 6 2 10
4 10 3 0 8 -4 11 -10z"/>
<path d="M6210 6341 c0 -7 7 -19 15 -27 13 -14 17 -14 31 0 14 15 14 16 -3 16
-11 0 -24 5 -31 12 -9 9 -12 9 -12 -1z"/>
<path d="M6320 6269 c0 -5 5 -7 10 -4 6 3 10 8 10 11 0 2 -4 4 -10 4 -5 0 -10
-5 -10 -11z"/>
<path d="M7378 5302 c-8 -10 -9 -13 -1 -9 14 9 45 -2 37 -14 -3 -5 6 -8 20 -7
27 2 37 18 11 18 -8 0 -15 4 -15 9 0 17 -39 19 -52 3z"/>
<path d="M7497 5200 c-21 -41 -21 -40 4 -40 11 0 18 4 14 9 -3 5 4 11 16 13
21 3 21 3 2 27 l-20 24 -16 -33z"/>
<path d="M7559 5157 c-22 -16 -10 -41 21 -44 21 -2 23 -1 8 8 -21 12 -24 35
-5 42 6 3 8 6 2 6 -5 0 -17 -5 -26 -12z"/>
<path d="M8853 4733 c-30 -20 -31 -68 -2 -83 34 -19 49 2 37 53 -5 23 -10 42
-11 43 -1 1 -12 -5 -24 -13z"/>
<path d="M9470 4410 c-8 -5 -11 -12 -7 -16 4 -4 13 -2 19 4 15 15 7 24 -12 12z"/>
<path d="M7240 7680 c-12 -8 -11 -10 8 -10 12 0 22 5 22 10 0 13 -11 13 -30 0z"/>
<path d="M8515 7670 c-3 -5 3 -10 14 -10 12 0 21 5 21 10 0 6 -6 10 -14 10 -8
0 -18 -4 -21 -10z"/>
<path d="M8850 7660 c0 -5 5 -10 11 -10 5 0 7 5 4 10 -3 6 -8 10 -11 10 -2 0
-4 -4 -4 -10z"/>
<path d="M6605 7650 c-3 -5 4 -11 15 -15 42 -13 14 -37 -34 -28 l-28 6 34 -45
c29 -40 35 -44 49 -32 10 9 16 33 18 67 2 49 1 52 -24 53 -14 1 -27 -2 -30 -6z
m20 -80 c3 -5 1 -10 -4 -10 -6 0 -11 5 -11 10 0 6 2 10 4 10 3 0 8 -4 11 -10z"/>
<path d="M8466 7645 c-11 -8 -15 -15 -9 -15 6 0 16 7 23 15 16 19 11 19 -14 0z"/>
<path d="M8775 7600 c-3 -5 -1 -10 4 -10 6 0 11 5 11 10 0 6 -2 10 -4 10 -3 0
-8 -4 -11 -10z"/>
<path d="M8832 7579 c-16 -16 -27 -19 -58 -14 -31 5 -35 4 -22 -5 10 -6 22
-19 28 -29 8 -16 7 -18 -11 -14 -15 4 -22 0 -26 -16 -3 -11 -10 -21 -16 -21
-6 0 -7 3 -4 7 4 3 2 12 -4 19 -7 8 -7 14 1 19 17 11 11 20 -15 21 -26 2 -34
-11 -12 -19 8 -3 3 -13 -15 -31 -16 -16 -33 -25 -40 -21 -7 4 -2 -3 12 -15 22
-19 25 -20 36 -6 15 21 20 20 51 -8 25 -23 28 -24 39 -8 7 9 10 19 8 22 -3 2
-9 -2 -14 -10 -5 -8 -12 -11 -16 -7 -4 4 0 15 10 25 16 16 18 16 27 0 6 -10
14 -18 18 -18 12 0 31 48 31 80 0 17 4 30 8 30 4 0 8 9 9 20 2 25 -2 25 -25
-1z m-12 -59 c0 -5 -2 -10 -4 -10 -3 0 -8 5 -11 10 -3 6 -1 10 4 10 6 0 11 -4
11 -10z"/>
<path d="M7237 7546 c-13 -10 -15 -16 -6 -21 10 -7 28 10 29 28 0 9 -2 9 -23
-7z"/>
<path d="M7183 7503 c-15 -5 -17 -23 -4 -23 5 0 11 7 15 15 3 8 4 15 3 14 -1
0 -8 -3 -14 -6z"/>
<path d="M8641 7404 c0 -11 3 -14 6 -6 3 7 2 16 -1 19 -3 4 -6 -2 -5 -13z"/>
<path d="M6936 7351 c-4 -7 -5 -15 -2 -18 9 -9 19 4 14 18 -4 11 -6 11 -12 0z"/>
<path d="M11166 7351 c-4 -5 -2 -12 3 -15 5 -4 12 -2 15 3 4 5 2 12 -3 15 -5
4 -12 2 -15 -3z"/>
<path d="M8012 7282 c-13 -11 -19 -23 -14 -26 13 -8 46 18 41 33 -3 9 -11 6
-27 -7z"/>
<path d="M6900 7275 c-17 -21 -5 -31 16 -14 15 12 16 11 10 -9 -5 -13 -3 -22
3 -22 6 0 11 5 11 10 0 6 7 10 15 10 24 0 17 20 -11 30 -32 12 -29 13 -44 -5z"/>
<path d="M11228 7259 c-25 -42 -23 -56 9 -62 22 -4 48 5 82 30 10 7 -34 43
-46 39 -7 -3 -13 1 -13 9 0 24 -14 17 -32 -16z"/>
<path d="M9497 7253 c-13 -16 -14 -21 -2 -43 12 -20 14 -22 15 -6 0 14 5 17
24 12 19 -5 25 -1 29 16 10 38 -37 52 -66 21z"/>
<path d="M8050 7245 c6 -8 8 -19 4 -26 -4 -7 -2 -10 5 -8 7 3 12 8 12 12 -1 4
-1 14 -1 22 0 8 -7 15 -16 15 -13 0 -14 -3 -4 -15z"/>
<path d="M6890 7230 c0 -5 5 -10 10 -10 6 0 10 5 10 10 0 6 -4 10 -10 10 -5 0
-10 -4 -10 -10z"/>
<path d="M9620 7206 c0 -8 -5 -16 -12 -18 -8 -3 -8 -9 0 -24 6 -10 12 -16 12
-11 0 4 11 0 24 -8 15 -10 26 -12 30 -6 5 7 15 7 31 1 21 -8 25 -7 25 10 0 10
-5 22 -11 25 -6 4 -8 13 -5 21 4 10 -2 14 -20 14 -14 0 -23 -4 -20 -9 8 -12
-3 -41 -15 -41 -5 0 -9 14 -9 30 0 20 -5 30 -15 30 -8 0 -15 -6 -15 -14z"/>
<path d="M6792 7190 c-6 -11 -12 -31 -12 -45 0 -14 -4 -25 -9 -25 -5 0 -11
-10 -15 -22 -5 -18 -8 -20 -15 -9 -5 7 -14 12 -20 10 -17 -6 79 -72 107 -75
13 -2 26 4 29 12 4 10 9 11 17 5 9 -8 24 7 54 51 22 34 39 64 37 67 -2 2 -16
-4 -30 -13 -20 -13 -25 -14 -25 -2 0 19 -30 29 -47 14 -12 -10 -12 -13 2 -20
19 -11 10 -29 -10 -21 -9 3 -15 -1 -15 -11 0 -19 2 -20 44 -2 32 13 33 13 29
-5 -4 -14 -14 -19 -39 -19 -19 0 -34 -4 -34 -10 0 -13 -27 -13 -35 1 -4 5 0
18 9 28 19 21 21 52 4 70 -11 11 -9 12 10 6 24 -7 29 4 10 23 -17 17 -31 15
-46 -8z"/>
<path d="M9735 7186 c2 -14 6 -29 9 -35 4 -5 2 -12 -4 -16 -15 -9 -12 -25 5
-25 9 0 18 -7 22 -16 4 -11 17 -15 42 -13 42 3 78 -13 108 -49 17 -20 25 -23
36 -14 7 7 18 8 23 4 5 -4 2 2 -7 13 -8 11 -16 33 -17 49 -1 16 -7 35 -13 42
-9 11 -8 14 5 14 10 0 15 -4 12 -9 -3 -5 1 -11 9 -15 22 -8 19 20 -4 43 -14
14 -22 16 -30 8 -6 -6 -11 -7 -11 -1 0 5 -5 2 -10 -6 -8 -12 -10 -10 -10 9 0
16 -4 21 -14 18 -8 -3 -16 -2 -18 3 -4 12 -48 1 -48 -12 0 -5 9 -12 20 -15 29
-8 53 -49 41 -71 -9 -15 -12 -13 -23 15 -12 32 -59 60 -79 47 -17 -10 -9 9 9
22 16 13 16 13 -3 14 -17 0 -17 2 -5 10 11 7 8 10 -16 10 -27 0 -31 -3 -29
-24z m194 -100 c10 -12 8 -13 -8 -9 -12 3 -18 9 -15 14 7 12 10 11 23 -5z"/>
<path d="M12114 7202 c-11 -7 -34 -45 -34 -56 0 -13 54 3 73 22 19 19 19 22 4
22 -9 0 -17 5 -17 10 0 12 -11 13 -26 2z"/>
<path d="M6940 7184 c0 -8 5 -12 10 -9 6 3 10 10 10 16 0 5 -4 9 -10 9 -5 0
-10 -7 -10 -16z"/>
<path d="M6970 7179 c0 -5 5 -7 10 -4 6 3 10 8 10 11 0 2 -4 4 -10 4 -5 0 -10
-5 -10 -11z"/>
<path d="M11770 7126 c-15 -42 -11 -55 6 -17 8 19 12 36 9 39 -2 3 -9 -7 -15
-22z"/>
<path d="M11694 7105 c-9 -14 -14 -28 -11 -31 3 -3 13 8 22 25 19 37 12 41
-11 6z"/>
<path d="M12126 7094 c-20 -19 -21 -34 -2 -34 9 0 12 -9 9 -27 -6 -39 12 -8
20 34 7 38 -5 50 -27 27z"/>
<path d="M9710 7090 c-13 -8 -12 -10 3 -10 9 0 17 5 17 10 0 12 -1 12 -20 0z"/>
<path d="M11215 7077 c-21 -11 -54 -47 -55 -59 0 -9 61 -5 77 5 10 6 12 52 2
62 -2 2 -13 -1 -24 -8z"/>
<path d="M11510 7014 c0 -8 5 -12 10 -9 6 4 8 11 5 16 -9 14 -15 11 -15 -7z"/>
<path d="M6790 6992 c0 -15 38 -44 49 -37 19 11 12 32 -11 39 -31 8 -38 7 -38
-2z"/>
<path d="M9930 6968 c1 -25 48 -99 68 -106 6 -2 12 3 12 11 0 8 7 17 15 21 8
3 15 12 15 20 0 15 -27 29 -41 20 -5 -3 -9 2 -9 10 0 9 -13 22 -30 31 -29 15
-30 15 -30 -7z"/>
<path d="M11547 6955 c-4 -8 -3 -16 1 -19 9 -5 32 20 25 28 -10 10 -21 7 -26
-9z"/>
<path d="M10480 6935 c0 -8 2 -15 4 -15 2 0 6 7 10 15 3 8 1 15 -4 15 -6 0
-10 -7 -10 -15z"/>
<path d="M9010 6864 c0 -5 7 -18 15 -28 15 -20 15 -20 30 0 8 10 15 22 15 27
0 12 -18 8 -23 -5 -3 -10 -7 -10 -20 1 -10 7 -17 10 -17 5z"/>
<path d="M10312 6840 c-7 -11 -17 -20 -23 -20 -5 0 -19 -9 -30 -19 -18 -16
-19 -20 -6 -28 9 -4 38 -6 66 -5 38 3 48 7 44 18 -3 9 -13 12 -24 9 -22 -7
-26 10 -4 19 18 7 20 46 2 46 -7 0 -18 -9 -25 -20z"/>
<path d="M10416 6801 c-3 -5 3 -11 14 -14 13 -3 20 0 20 9 0 15 -26 19 -34 5z"/>
<path d="M7491 6747 c-13 -21 -12 -21 5 -5 10 10 16 20 13 22 -3 3 -11 -5 -18
-17z"/>
<path d="M7480 6704 c0 -8 5 -12 10 -9 6 3 10 10 10 16 0 5 -4 9 -10 9 -5 0
-10 -7 -10 -16z"/>
<path d="M7845 6645 c0 -45 11 -54 13 -10 1 19 -2 36 -6 39 -4 2 -7 -11 -7
-29z"/>
<path d="M9220 6670 c0 -6 17 -10 37 -10 43 0 41 5 -4 13 -19 4 -33 2 -33 -3z"/>
<path d="M7805 6651 c-6 -11 9 -23 19 -14 9 9 7 23 -3 23 -6 0 -12 -4 -16 -9z"/>
<path d="M9406 6630 c8 -31 10 -33 23 -29 5 2 1 15 -10 29 l-20 25 7 -25z"/>
<path d="M9648 6554 c12 -8 19 -21 16 -27 -4 -7 -1 -7 7 1 12 11 11 15 -5 28
-11 8 -24 14 -30 14 -6 0 0 -7 12 -16z"/>
<path d="M9548 6553 c-3 -4 -5 -21 -6 -37 -2 -28 -1 -28 17 -12 10 10 18 25
17 34 -3 17 -22 28 -28 15z"/>
<path d="M8769 6537 c-16 -12 -23 -51 -7 -41 4 3 8 -2 8 -11 0 -9 6 -15 13
-14 6 1 24 -1 39 -5 23 -7 26 -11 18 -31 -12 -31 34 -67 68 -52 17 8 26 6 42
-8 10 -9 18 -20 17 -24 -3 -13 25 -51 38 -51 8 0 15 -4 15 -10 0 -19 28 -10
33 10 3 11 1 20 -4 20 -5 0 -9 5 -9 10 0 22 -99 108 -132 115 -21 5 -49 24
-78 55 -38 41 -48 47 -61 37z"/>
<path d="M9595 6530 c-7 -11 15 -48 33 -55 8 -3 21 -1 30 4 16 9 16 10 0 16
-10 4 -18 13 -18 20 0 7 -7 16 -16 19 -20 8 -22 8 -29 -4z m35 -14 c0 -3 -4
-8 -10 -11 -5 -3 -10 -1 -10 4 0 6 5 11 10 11 6 0 10 -2 10 -4z"/>
<path d="M9015 6510 c-8 -13 22 -43 35 -35 15 9 12 19 -10 32 -12 8 -21 9 -25
3z"/>
<path d="M9081 6474 c0 -11 3 -14 6 -6 3 7 2 16 -1 19 -3 4 -6 -2 -5 -13z"/>
<path d="M9394 6464 c-5 -19 -2 -31 10 -39 23 -17 20 -23 -9 -17 -14 2 -25 10
-25 17 0 7 -6 15 -14 18 -10 4 -17 -11 -26 -58 -11 -59 -11 -64 9 -84 12 -12
19 -26 16 -31 -4 -6 8 -10 26 -10 28 0 31 -2 26 -26 -3 -20 0 -28 13 -31 11
-3 16 -11 13 -18 -3 -9 2 -13 15 -12 17 1 19 5 10 20 -12 23 -3 51 14 41 7 -5
22 -8 33 -9 11 0 24 -10 30 -23 9 -22 15 -23 62 -20 38 3 50 1 46 -8 -8 -22
-104 -64 -144 -64 -26 0 -41 -6 -48 -17 -6 -10 -11 -13 -11 -8 0 12 -50 19
-50 7 0 -4 5 -13 12 -20 6 -6 9 -15 5 -18 -8 -9 -37 15 -37 30 0 8 -13 11 -37
9 -97 -9 -104 -20 -39 -58 23 -14 51 -34 61 -45 15 -16 56 -32 90 -34 13 -1
47 -27 65 -50 14 -18 14 -19 -6 -8 -11 6 -26 18 -34 26 -14 18 -37 21 -42 5
-4 -12 -58 -2 -58 12 0 5 -6 6 -13 3 -7 -2 -33 12 -57 33 -24 21 -45 36 -47
33 -1 -3 -12 3 -23 13 -11 9 -24 17 -29 17 -5 0 -11 7 -15 15 -3 8 -10 15 -16
15 -6 0 -8 -4 -5 -10 3 -5 1 -10 -4 -10 -18 0 -26 5 -23 13 1 4 -16 7 -38 7
-27 0 -47 7 -60 20 -11 11 -24 20 -29 20 -6 0 -4 15 4 33 7 18 15 50 17 71 3
36 0 40 -28 50 -18 6 -47 23 -64 38 -19 16 -51 30 -76 34 -32 4 -44 11 -48 27
-6 21 -7 21 -20 5 -7 -10 -16 -18 -20 -18 -3 0 -15 -9 -26 -20 -12 -12 -15
-20 -7 -20 6 0 21 -14 32 -30 11 -17 28 -33 37 -36 9 -3 20 -14 23 -25 4 -11
13 -18 20 -15 7 2 21 -4 30 -14 10 -11 37 -27 61 -36 24 -9 44 -21 44 -25 0
-14 -114 2 -123 17 -4 8 -14 14 -22 14 -8 0 -29 13 -47 28 -47 41 -65 45 -89
21 l-20 -20 26 -32 c14 -18 30 -38 36 -45 9 -11 31 -12 93 -8 l81 7 -35 -31
c-19 -16 -29 -30 -22 -30 7 0 12 -5 12 -11 0 -8 -5 -7 -16 2 -9 7 -18 9 -22 3
-4 -5 -32 -10 -62 -12 -60 -3 -70 -11 -70 -59 0 -30 3 -33 33 -35 17 0 42 0
53 1 12 1 27 -6 34 -14 11 -13 10 -14 -4 -9 -12 5 -19 0 -23 -17 -6 -21 -7
-21 -13 -4 -7 21 -50 29 -50 8 0 -7 5 -23 12 -36 6 -12 14 -28 17 -36 4 -8 19
-15 35 -17 15 -1 33 -7 40 -13 6 -5 33 -9 59 -7 26 1 47 -1 47 -6 0 -4 9 -8
20 -8 11 0 20 -3 20 -6 0 -11 -45 -42 -54 -37 -4 3 -2 9 5 14 7 4 10 11 6 15
-4 4 -12 3 -18 -3 -8 -8 -20 -8 -37 -2 -15 6 -29 6 -34 1 -12 -12 39 -72 62
-72 9 0 29 -9 43 -21 21 -15 35 -19 64 -14 27 5 34 4 24 -3 -13 -9 -13 -13 0
-28 12 -15 12 -16 -9 -10 -16 6 -22 3 -22 -8 0 -9 -4 -16 -10 -16 -5 0 -10 -7
-10 -15 0 -9 9 -15 24 -15 13 0 49 -12 79 -26 44 -20 61 -23 76 -15 34 18 69
13 77 -11 6 -21 4 -24 -43 -55 -15 -11 -13 -11 10 -3 33 12 47 6 47 -19 0 -10
6 -33 14 -52 l14 -32 6 30 c24 106 191 126 232 28 16 -38 7 -75 -27 -111 -19
-21 -19 -21 1 -68 13 -30 24 -45 31 -40 7 4 9 3 6 -4 -20 -31 39 -56 63 -27
12 15 62 7 73 -11 4 -8 18 -14 31 -14 13 0 40 -11 60 -25 43 -29 74 -32 83 -7
4 9 19 29 34 44 24 24 26 25 22 7 -8 -30 28 -21 44 11 11 21 10 27 -2 36 -8 6
-15 25 -15 42 0 17 -4 34 -10 37 -16 10 -12 37 8 51 16 12 16 15 -3 50 -11 21
-35 53 -54 72 -44 44 -31 57 57 57 l67 0 0 -29 c0 -16 6 -31 13 -34 10 -3 12
6 10 34 -3 36 -1 39 25 42 19 2 27 9 27 23 0 10 5 19 11 19 23 0 121 118 154
185 34 71 53 191 31 198 -6 2 -5 15 2 34 9 26 8 31 -4 26 -11 -4 -13 2 -8 25
6 27 3 32 -19 38 -15 3 -31 12 -38 20 -6 8 -15 12 -19 9 -4 -3 -21 2 -36 10
-35 18 -90 19 -124 2 -36 -18 -67 -10 -91 24 -15 22 -25 27 -32 20 -16 -16
-24 -14 -30 8 -2 10 -14 24 -25 30 -20 10 -20 9 -15 -26 3 -21 13 -50 21 -65
26 -44 4 -52 -48 -17 -31 21 -46 26 -49 18 -2 -7 1 -15 8 -17 6 -2 11 -8 11
-14 0 -6 -7 -8 -15 -4 -8 3 -15 1 -15 -4 0 -6 -5 -10 -11 -10 -6 0 -9 7 -5 15
3 8 0 18 -7 22 -19 12 -17 43 2 43 9 0 23 6 29 12 10 10 15 10 22 -2 6 -9 10
-10 10 -3 0 6 -5 15 -11 19 -6 3 -8 16 -5 27 3 14 -2 30 -16 44 -22 23 -58 31
-58 13 0 -5 7 -10 15 -10 8 0 15 -4 15 -10 0 -14 -13 -13 -29 3 -10 8 -15 9
-18 1 -2 -6 -15 -9 -28 -6 -20 3 -24 9 -19 28 5 19 1 24 -20 30 -14 3 -23 10
-20 15 3 5 9 7 13 5 4 -3 8 1 8 9 0 8 -8 15 -18 15 -10 0 -20 9 -24 19 -7 23
-37 35 -64 26 -13 -4 -26 4 -45 30 -15 19 -25 38 -23 43 2 4 -6 17 -19 30
l-24 22 -6 -26z m31 -14 c3 -5 1 -10 -4 -10 -6 0 -11 5 -11 10 0 6 2 10 4 10
3 0 8 -4 11 -10z m113 -177 c2 -8 -5 -13 -17 -13 -21 0 -35 13 -24 24 10 10
36 3 41 -11z m195 -93 c-5 -20 -15 -25 -26 -13 -8 7 11 33 23 33 5 0 6 -9 3
-20z m-953 -60 c0 -5 -4 -10 -10 -10 -5 0 -10 5 -10 10 0 6 5 10 10 10 6 0 10
-4 10 -10z m690 -64 c0 -8 8 -17 18 -19 11 -3 7 -5 -10 -6 -21 -1 -26 3 -25
19 1 23 17 28 17 6z m93 -7 c15 -15 18 -23 10 -26 -14 -5 -18 -33 -5 -33 4 0
14 6 21 13 10 10 11 7 6 -14 -5 -21 -1 -29 19 -43 26 -16 36 -46 16 -46 -5 0
-10 7 -10 15 0 9 -8 19 -17 22 -10 4 -38 21 -63 38 -39 26 -42 30 -23 33 22 3
22 3 2 23 -10 10 -19 24 -19 29 0 18 40 11 63 -11z m120 1 c-3 -11 -9 -20 -14
-20 -5 0 -9 9 -9 20 0 11 6 20 14 20 9 0 12 -7 9 -20z m-693 -11 c14 -11 18
-18 10 -15 -8 3 -23 9 -32 12 -10 4 -18 10 -18 15 0 14 13 10 40 -12z m882
-11 c23 -19 33 -68 13 -68 -12 0 -14 -6 -9 -26 5 -19 4 -25 -5 -20 -6 4 -14 0
-17 -8 -8 -20 -34 -21 -34 -1 0 8 7 15 15 15 8 0 15 3 15 7 0 15 -34 83 -42
83 -4 0 -8 5 -8 11 0 5 4 8 8 5 4 -2 14 -1 22 5 20 12 23 11 42 -3z m-157 -18
c3 -5 -1 -10 -9 -10 -9 0 -16 5 -16 10 0 6 4 10 9 10 6 0 13 -4 16 -10z m31
-50 c8 0 14 -4 14 -10 0 -5 7 -10 16 -10 8 0 12 -5 9 -11 -5 -7 -13 -5 -24 5
-10 9 -22 16 -28 16 -13 0 -24 26 -15 35 4 4 8 0 10 -9 2 -9 10 -16 18 -16z
m-591 10 c-3 -5 -15 -10 -26 -10 -10 0 -19 5 -19 10 0 6 12 10 26 10 14 0 23
-4 19 -10z m55 0 c0 -5 -7 -6 -17 -3 -11 4 -14 3 -9 -5 4 -7 2 -12 -3 -12 -12
0 -14 13 -4 23 10 10 33 8 33 -3z m-220 -9 c0 -5 8 -11 18 -15 9 -3 26 -11 37
-18 11 -7 22 -14 24 -16 2 -1 5 -12 6 -24 1 -17 11 -26 37 -33 19 -5 46 -18
61 -27 33 -22 61 -24 53 -3 -3 8 -1 15 4 15 6 0 10 -4 10 -8 0 -5 18 -17 40
-28 52 -25 51 -36 0 -18 -31 11 -46 12 -62 3 -17 -9 -23 -8 -30 5 -5 9 -18 16
-28 16 -10 0 -23 7 -28 16 -7 12 -19 15 -40 12 -24 -3 -29 -2 -21 8 7 9 5 15
-8 23 -10 6 -12 11 -5 11 6 0 12 5 12 11 0 6 -9 9 -19 6 -13 -3 -18 0 -15 7 3
7 -11 21 -31 31 -34 19 -46 35 -25 35 6 0 10 -4 10 -9z m264 -13 c-3 -5 -12
-4 -20 3 -19 16 -18 18 6 12 11 -3 17 -9 14 -15z m406 12 c0 -5 -2 -10 -4 -10
-3 0 -8 5 -11 10 -3 6 -1 10 4 10 6 0 11 -4 11 -10z m-369 -27 c13 -16 12 -17
-3 -4 -10 7 -18 15 -18 17 0 8 8 3 21 -13z m-299 -31 c-6 -2 -9 -8 -6 -14 3
-5 -3 -4 -15 4 -29 18 -26 26 7 20 15 -3 21 -7 14 -10z m186 1 c-9 -11 -9 -16
1 -23 10 -5 10 -9 2 -15 -10 -6 -50 30 -51 46 0 3 13 6 30 6 24 0 28 -3 18
-14z m277 7 c3 -5 1 -10 -4 -10 -6 0 -11 5 -11 10 0 6 2 10 4 10 3 0 8 -4 11
-10z m-340 -10 c3 -5 2 -10 -4 -10 -5 0 -13 5 -16 10 -3 6 -2 10 4 10 5 0 13
-4 16 -10z m217 -14 c4 -22 1 -24 -36 -24 -23 -1 -48 3 -56 9 -11 7 -7 8 13 3
25 -6 31 0 29 26 0 3 10 7 23 8 17 1 24 -5 27 -22z m98 -7 c24 -19 24 -20 2
-9 -13 6 -30 9 -38 6 -14 -6 -19 5 -7 17 10 10 16 8 43 -14z m430 -51 c0 -19
-2 -20 -10 -8 -13 19 -13 30 0 30 6 0 10 -10 10 -22z m-800 -63 c0 -11 12 -15
43 -16 l42 -2 -40 -6 c-40 -6 -95 11 -95 30 0 5 11 9 25 9 16 0 25 -6 25 -15z
m250 -53 c3 -3 -11 -1 -30 3 -19 5 -55 9 -79 9 -28 1 -46 6 -49 15 -3 9 1 11
17 6 11 -3 28 -2 38 3 12 8 29 5 58 -10 22 -11 42 -23 45 -26z m-96 -58 c3 -8
1 -14 -4 -14 -6 0 -10 -7 -10 -15 0 -8 -7 -15 -15 -15 -8 0 -15 6 -15 14 0 8
-9 21 -20 29 -11 8 -18 16 -15 18 10 10 74 -4 79 -17z m72 9 c7 -10 14 -24 14
-30 0 -20 -18 -15 -25 7 -4 12 -15 20 -28 20 -18 0 -19 2 -7 10 21 14 31 12
46 -7z m-174 -15 c-7 -7 -12 -8 -12 -2 0 14 12 26 19 19 2 -3 -1 -11 -7 -17z
m358 -17 c0 -5 -26 -11 -57 -13 -32 -2 -66 -8 -76 -12 -13 -6 -17 -5 -15 5 2
8 12 17 23 21 31 10 125 9 125 -1z m-363 -7 c-3 -3 -12 -4 -19 -1 -8 3 -5 6 6
6 11 1 17 -2 13 -5z m323 -84 c0 -5 -4 -10 -10 -10 -5 0 -10 5 -10 10 0 6 5
10 10 10 6 0 10 -4 10 -10z m228 -66 c8 -14 10 -14 21 0 27 32 81 13 81 -28 0
-42 -51 -71 -78 -44 -9 9 -12 4 -12 -24 0 -26 6 -40 22 -50 20 -13 21 -17 9
-32 -19 -23 -148 -19 -142 4 13 46 12 102 -2 118 -20 22 -11 37 33 56 45 20
57 20 68 0z"/>
<path d="M9690 6470 c0 -5 -8 -10 -17 -10 -15 0 -14 -2 2 -14 11 -8 23 -12 27
-10 12 7 10 44 -2 44 -5 0 -10 -4 -10 -10z"/>
<path d="M7770 6416 c0 -2 7 -9 15 -16 12 -10 15 -10 15 4 0 9 -7 16 -15 16
-8 0 -15 -2 -15 -4z"/>
<path d="M9978 6413 c-10 -3 -18 -8 -18 -13 0 -5 7 -7 15 -4 9 4 15 1 15 -7 0
-10 3 -10 12 -1 15 15 0 30 -24 25z"/>
<path d="M8670 6374 c0 -8 5 -12 10 -9 6 3 10 10 10 16 0 5 -4 9 -10 9 -5 0
-10 -7 -10 -16z"/>
<path d="M9640 6330 c0 -5 5 -10 11 -10 5 0 7 5 4 10 -3 6 -8 10 -11 10 -2 0
-4 -4 -4 -10z"/>
<path d="M9651 6296 c2 -2 15 -9 29 -15 24 -11 24 -11 6 3 -16 13 -49 24 -35
12z"/>
<path d="M9296 6256 c-10 -37 -6 -66 8 -66 8 0 16 -7 20 -15 4 -10 19 -15 48
-15 35 1 40 3 25 11 -12 7 -16 17 -12 30 5 13 2 19 -10 19 -9 0 -29 13 -45 28
-28 28 -29 28 -34 8z"/>
<path d="M11439 6073 c-13 -16 -12 -17 4 -4 9 7 17 15 17 17 0 8 -8 3 -21 -13z"/>
<path d="M9314 5985 c21 -16 32 -13 21 4 -3 6 -14 11 -23 11 -15 -1 -15 -2 2
-15z"/>
<path d="M11765 5980 c-3 -5 -1 -10 4 -10 6 0 11 5 11 10 0 6 -2 10 -4 10 -3
0 -8 -4 -11 -10z"/>
<path d="M11810 5970 c0 -5 5 -10 10 -10 6 0 10 5 10 10 0 6 -4 10 -10 10 -5
0 -10 -4 -10 -10z"/>
<path d="M11610 5939 c0 -5 5 -7 10 -4 6 3 10 8 10 11 0 2 -4 4 -10 4 -5 0
-10 -5 -10 -11z"/>
<path d="M11831 5883 c-13 -14 -12 -18 5 -30 18 -13 18 -15 2 -27 -31 -23 -22
-46 16 -46 19 0 47 -5 62 -10 31 -12 60 4 35 19 -7 5 -11 13 -8 18 4 6 -10 9
-34 8 -32 -2 -39 1 -34 13 3 8 -2 23 -11 33 -9 10 -13 23 -9 28 10 17 -8 12
-24 -6z"/>
<path d="M11976 5814 c-3 -8 1 -23 10 -31 13 -13 17 -14 24 -3 9 15 -5 50 -19
50 -5 0 -12 -7 -15 -16z"/>
<path d="M12030 5791 c0 -11 39 -41 52 -41 19 0 6 38 -14 44 -32 8 -38 7 -38
-3z"/>
<path d="M11985 5730 c-3 -5 -1 -10 5 -10 7 0 9 -7 6 -16 -12 -33 6 -65 45
-81 38 -15 54 -43 25 -43 -8 0 -17 -11 -20 -25 -4 -14 -13 -25 -21 -25 -8 0
-15 -8 -15 -19 0 -25 40 -35 60 -16 13 13 12 15 -3 15 -31 0 -19 36 18 56 30
17 31 59 2 84 -17 15 -23 28 -19 42 3 15 1 19 -9 16 -8 -3 -26 3 -41 14 -16
11 -29 15 -33 8z m95 -89 c0 -6 -4 -13 -10 -16 -5 -3 -10 1 -10 9 0 9 5 16 10
16 6 0 10 -4 10 -9z"/>
<path d="M10701 5591 c-12 -7 -10 -14 8 -36 11 -15 21 -22 21 -16 0 15 60 41
94 41 27 0 36 -21 36 -92 0 -38 5 -50 25 -66 33 -27 32 -42 -5 -42 -18 0 -37
-8 -47 -20 -21 -24 -58 -28 -49 -5 3 9 0 15 -8 15 -22 0 -41 29 -28 42 16 16
15 83 -2 97 -10 9 -16 8 -26 -4 -11 -13 -15 -13 -41 1 -17 8 -29 10 -29 4 0
-5 7 -10 16 -10 20 0 74 -54 74 -74 0 -8 -10 -26 -22 -40 -20 -23 -31 -26 -91
-27 -38 -1 -74 -7 -80 -13 -18 -16 -65 -42 -117 -66 -25 -11 -53 -24 -62 -30
-10 -5 -24 -10 -32 -10 -8 0 -17 -7 -20 -16 -9 -24 -7 -54 4 -54 7 0 7 -6 0
-19 -14 -27 -13 -34 4 -28 10 4 12 0 9 -14 -7 -26 -23 -35 -23 -12 0 12 -5 9
-16 -12 -20 -38 -34 -53 -34 -36 0 8 -10 2 -21 -13 -25 -32 -38 -27 -16 7 l15
23 -49 -23 c-46 -22 -69 -47 -69 -73 0 -6 4 -9 9 -6 5 3 14 -1 21 -9 7 -8 18
-15 25 -15 7 0 18 -7 25 -15 6 -8 22 -13 33 -12 12 1 22 -3 22 -10 0 -28 55
-70 55 -43 0 6 -6 10 -14 10 -17 0 -31 18 -22 27 8 9 37 -18 47 -44 5 -13 16
-23 24 -23 12 0 15 -6 10 -21 -5 -15 -2 -22 14 -26 22 -6 38 -40 24 -53 -4 -5
-19 -10 -33 -13 -24 -4 -24 -4 9 -17 23 -9 38 -24 49 -49 12 -27 17 -32 20
-18 2 11 9 16 18 13 8 -3 17 1 20 9 4 8 11 15 16 15 6 0 8 -6 5 -14 -4 -10 2
-13 21 -11 15 2 32 -1 37 -5 6 -4 21 -10 35 -12 21 -2 25 1 23 22 l-3 25 12
-23 c14 -27 32 -24 36 7 3 15 8 21 19 17 8 -3 21 -6 28 -6 7 0 18 -12 23 -27
6 -16 11 -22 11 -15 2 23 21 12 21 -12 0 -14 12 -33 32 -49 24 -21 29 -29 20
-40 -7 -8 -9 -17 -5 -21 4 -4 -3 -9 -15 -13 -17 -4 -20 -8 -11 -19 6 -7 8 -18
4 -25 -5 -8 -1 -9 13 -5 12 4 30 3 40 -3 21 -11 36 -4 45 22 8 21 50 23 71 2
8 -8 17 -15 20 -15 2 0 17 -12 33 -27 16 -16 38 -33 48 -40 19 -11 18 -12 -7
-12 -16 -1 -28 -6 -28 -12 0 -6 -7 -17 -15 -25 -19 -20 -19 -30 1 -38 22 -9
32 3 14 15 -12 8 -11 9 4 7 13 -2 24 6 32 20 6 13 22 35 36 50 27 30 40 50 87
135 17 32 29 62 26 67 -3 5 3 17 14 27 11 10 27 35 35 55 16 38 12 47 -26 61
-28 10 -21 25 8 19 19 -3 25 -1 20 7 -4 6 -13 11 -20 11 -7 0 -30 16 -51 35
-27 23 -42 31 -46 23 -5 -8 -14 -4 -27 13 -23 28 -22 35 5 20 10 -6 34 -14 53
-19 19 -5 35 -12 35 -18 0 -17 16 -34 31 -34 9 0 22 -7 31 -15 20 -21 28 -13
43 39 12 42 14 44 38 35 22 -8 23 -8 12 6 -16 19 -60 20 -60 1 0 -9 -7 -12
-21 -9 -11 3 -18 11 -15 18 2 7 -5 15 -16 18 -13 4 -19 11 -15 20 6 16 -31 57
-51 57 -7 0 -12 4 -12 9 0 5 -9 7 -20 4 -11 -3 -17 -10 -13 -16 3 -6 1 -7 -5
-3 -7 4 -12 18 -12 31 0 22 3 23 36 18 26 -4 49 -19 78 -50 39 -41 66 -55 66
-33 0 6 -8 14 -17 17 -15 6 -14 7 3 13 27 10 46 1 39 -20 -7 -21 3 -50 18 -50
6 0 21 -10 35 -22 13 -13 49 -32 80 -43 35 -12 57 -26 57 -35 0 -8 10 -16 23
-18 23 -4 29 -16 12 -27 -6 -4 -18 -1 -26 6 -8 6 -16 10 -18 8 -1 -2 -20 -46
-41 -98 -20 -52 -62 -139 -91 -193 -30 -54 -54 -105 -54 -113 0 -20 39 -19 61
1 16 15 19 14 31 -5 7 -12 18 -21 25 -21 7 0 13 -7 13 -15 0 -9 6 -18 13 -21
8 -3 20 -27 27 -54 8 -28 19 -50 25 -50 6 0 26 -11 45 -25 54 -40 114 -28 74
16 -9 10 -12 19 -6 19 6 0 14 -5 18 -11 3 -6 20 -9 37 -6 17 2 42 -2 56 -9 38
-20 46 -18 65 22 17 36 16 37 -5 60 -23 25 -46 33 -33 12 4 -7 3 -8 -4 -4 -7
4 -12 14 -12 22 0 8 -9 14 -21 14 -12 0 -17 4 -14 11 4 6 -1 16 -11 24 -24 17
-12 30 14 16 11 -6 28 -8 37 -5 10 4 21 1 25 -6 10 -16 79 -5 86 15 6 14 -12
55 -28 66 -5 3 -6 14 -2 23 6 15 15 17 50 13 29 -3 44 0 48 8 6 17 -21 28 -28
12 -2 -7 -5 -3 -5 8 -1 11 -10 28 -21 38 -11 9 -20 28 -20 42 0 14 -7 28 -15
32 -25 9 -31 -6 -9 -22 24 -18 10 -19 -24 -1 -15 8 -38 18 -52 24 l-25 10 33
8 c37 8 41 36 7 42 -41 7 -48 11 -36 26 9 11 8 18 -5 31 -12 12 -14 19 -5 28
8 8 11 7 11 -5 0 -9 10 -18 22 -22 18 -4 20 -8 10 -18 -16 -16 -15 -28 2 -28
8 0 21 -6 28 -12 8 -7 27 -20 43 -28 16 -9 35 -26 41 -39 17 -33 34 -49 34
-30 0 12 2 12 10 -1 6 -9 10 -10 10 -3 0 6 -8 18 -18 25 -17 12 -42 49 -42 62
0 3 6 6 14 6 8 0 16 6 19 13 3 9 7 9 20 -2 10 -7 17 -9 17 -3 0 5 -7 13 -16
16 -8 3 -12 10 -9 16 4 6 11 8 16 5 5 -4 9 1 9 10 0 9 -4 13 -10 10 -5 -3 -10
-1 -10 4 0 6 4 11 8 11 5 0 15 12 23 26 7 15 23 30 34 35 18 7 17 8 -6 8 -19
1 -28 -5 -32 -19 -3 -11 -10 -20 -17 -20 -6 0 -8 5 -4 12 4 6 1 16 -7 22 -8 6
-21 24 -29 39 -12 24 -19 28 -44 24 -32 -4 -90 15 -118 40 -11 10 -26 13 -42
9 -20 -5 -34 1 -64 28 -21 19 -51 38 -67 42 -17 4 -33 11 -36 17 -8 12 -90 27
-83 16 3 -5 -2 -12 -12 -16 -12 -4 -23 2 -36 20 -17 23 -27 27 -67 27 -43 0
-51 4 -82 39 -19 21 -45 41 -59 44 -14 3 -38 9 -55 13 -16 4 -43 20 -59 35
-16 15 -46 30 -68 33 -56 9 -38 23 24 20 36 -2 58 -9 68 -21 18 -21 63 -43 90
-43 10 0 40 -11 66 -25 26 -14 55 -25 66 -25 19 0 67 -27 81 -45 4 -6 10 -5
16 4 7 10 13 11 31 1 23 -12 122 -22 115 -11 -2 3 -21 14 -42 25 -21 10 -45
22 -54 26 -9 5 -36 14 -59 20 -24 7 -56 24 -70 38 -47 47 -108 92 -125 92 -9
0 -19 9 -22 20 -4 15 -9 17 -23 10 -21 -11 -31 -4 -22 18 5 14 3 15 -9 5 -26
-21 -82 -25 -114 -9 -17 9 -36 16 -42 16 -7 0 -13 7 -13 16 0 10 -6 14 -17 11
-10 -3 -31 -8 -46 -11 -15 -4 -26 -10 -23 -15 3 -4 -6 -6 -19 -3 -33 6 -35 41
-2 44 12 0 28 2 34 2 7 1 20 9 30 19 17 17 17 19 0 29 -43 24 -56 120 -21 149
11 9 7 15 -23 31 -32 18 -41 18 -80 7 -33 -9 -47 -9 -56 0 -13 13 -27 14 -46
2z m39 -221 c0 -5 -5 -10 -11 -10 -5 0 -7 5 -4 10 3 6 8 10 11 10 2 0 4 -4 4
-10z m161 -132 c11 -22 11 -22 -7 -7 -10 9 -26 19 -34 22 -10 4 -8 6 7 6 13 1
27 -8 34 -21z m-267 -234 c4 -10 1 -14 -6 -12 -15 5 -23 28 -10 28 5 0 13 -7
16 -16z m-350 -29 c-4 -8 -11 -15 -16 -15 -6 0 -5 6 2 15 7 8 14 15 16 15 2 0
1 -7 -2 -15z m366 -38 c0 -17 8 -39 17 -49 14 -15 14 -21 4 -27 -19 -12 -3
-82 20 -88 23 -6 25 -23 4 -23 -8 0 -15 -5 -15 -12 0 -8 -6 -6 -17 5 -12 11
-17 35 -18 79 -1 35 -7 76 -14 91 -15 38 -14 54 4 54 10 0 15 -10 15 -30z
m730 7 c0 -13 -22 -44 -31 -44 -6 0 -7 5 -2 13 4 6 8 15 9 20 1 4 2 9 3 12 1
7 21 6 21 -1z m-152 -62 c6 -18 -15 -14 -22 4 -4 10 -1 14 6 12 6 -2 14 -10
16 -16z m232 -32 c0 -6 -4 -10 -10 -10 -5 0 -10 5 -10 11 0 6 -7 9 -15 5 -16
-6 -57 23 -49 35 6 10 84 -29 84 -41z m24 31 c4 -5 -3 -7 -14 -4 -23 6 -26 13
-6 13 8 0 17 -4 20 -9z m-475 -54 c15 -29 51 -43 51 -21 0 8 4 14 10 14 15 0
24 -50 11 -63 -8 -8 -11 -8 -11 1 0 7 -6 12 -13 12 -16 0 -77 55 -77 69 0 6
-12 11 -27 12 -25 0 -25 1 -8 8 25 11 47 -1 64 -32z m28 -9 c-3 -8 -6 -5 -6 6
-1 11 2 17 5 13 3 -3 4 -12 1 -19z m518 6 c14 -9 39 -17 57 -18 25 -1 33 -7
39 -29 4 -16 3 -27 -3 -27 -5 0 -12 8 -15 19 -3 11 -14 19 -27 19 -30 0 -96
21 -96 31 0 8 11 21 17 21 2 0 15 -7 28 -16z m-676 -52 c-16 -6 -39 19 -39 42
0 19 2 18 24 -9 14 -16 20 -32 15 -33z m816 -1 c-3 -6 -11 -8 -17 -5 -6 4 -5
9 3 15 16 10 23 4 14 -10z m-760 -31 c3 -6 -1 -7 -9 -4 -18 7 -21 14 -7 14 6
0 13 -4 16 -10z m130 -28 c-3 -3 -11 0 -18 7 -9 10 -8 11 6 5 10 -3 15 -9 12
-12z m45 8 c0 -5 -4 -10 -10 -10 -5 0 -10 5 -10 10 0 6 5 10 10 10 6 0 10 -4
10 -10z m20 -38 c0 -4 -9 -8 -21 -9 -17 -2 -18 1 -9 12 12 14 30 12 30 -3z
m-160 -2 c0 -5 -2 -10 -4 -10 -3 0 -8 5 -11 10 -3 6 -1 10 4 10 6 0 11 -4 11
-10z m203 -50 c3 -13 0 -20 -9 -20 -8 0 -14 9 -14 20 0 11 4 20 9 20 5 0 11
-9 14 -20z m415 -19 c3 -8 -1 -12 -9 -9 -7 2 -15 10 -17 17 -3 8 1 12 9 9 7
-2 15 -10 17 -17z m-83 -71 c-3 -5 -1 -10 5 -10 6 0 8 -4 5 -10 -4 -6 -11 -5
-19 3 -15 13 -12 27 5 27 6 0 7 -4 4 -10z m225 -18 c0 -15 -2 -15 -10 -2 -13
20 -13 33 0 25 6 -3 10 -14 10 -23z m-95 -121 c3 -5 1 -12 -4 -15 -5 -3 -11 1
-15 9 -6 16 9 21 19 6z m35 -41 c13 -8 13 -10 -2 -10 -9 0 -20 5 -23 10 -8 13
5 13 25 0z m5 -31 c11 -17 0 -20 -21 -4 -17 13 -17 14 -2 15 9 0 20 -5 23 -11z
m-143 -21 c-7 -7 -12 -8 -12 -2 0 14 12 26 19 19 2 -3 -1 -11 -7 -17z m162
-93 c-4 -8 -7 -15 -9 -15 -2 0 -5 7 -9 15 -3 9 0 15 9 15 9 0 12 -6 9 -15z
m-84 -5 c0 -5 -2 -10 -4 -10 -3 0 -8 5 -11 10 -3 6 -1 10 4 10 6 0 11 -4 11
-10z"/>
<path d="M11970 5564 c0 -8 5 -12 10 -9 6 4 8 11 5 16 -9 14 -15 11 -15 -7z"/>
<path d="M14109 5563 c-1 -5 -1 -60 0 -123 8 -438 -78 -991 -224 -1445 -19
-60 -35 -120 -35 -132 0 -13 -5 -23 -11 -23 -7 0 -9 -10 -5 -24 4 -18 1 -29
-13 -38 -10 -7 -39 -65 -65 -128 -25 -63 -53 -127 -62 -143 -17 -31 -12 -47
17 -47 12 0 17 -4 13 -11 -3 -6 -17 -8 -30 -5 -21 6 -24 3 -24 -19 0 -15 6
-25 14 -25 9 0 16 -12 18 -27 2 -16 10 -29 19 -31 17 -3 61 80 135 255 38 90
41 104 27 112 -10 5 -14 15 -9 26 6 17 7 17 21 -1 14 -18 15 -17 8 11 -3 16
-6 36 -6 45 0 8 -8 25 -19 37 -20 21 -20 21 1 32 12 7 21 8 21 4 0 -4 10 4 22
17 l22 24 7 -25 c4 -18 15 5 48 106 92 285 163 625 195 945 18 174 32 552 22
603 -7 37 -7 37 -56 37 -28 0 -51 -3 -51 -7z m-229 -1793 c0 -5 -4 -10 -10
-10 -5 0 -10 5 -10 10 0 6 5 10 10 10 6 0 10 -4 10 -10z"/>
<path d="M12097 5543 c-4 -3 -7 -11 -7 -17 0 -6 5 -5 12 2 6 6 9 14 7 17 -3 3
-9 2 -12 -2z"/>
<path d="M10980 5527 c0 -29 22 -77 36 -77 17 0 18 22 2 38 -7 7 -13 20 -13
29 0 9 -6 18 -12 20 -7 3 -13 -2 -13 -10z"/>
<path d="M11117 5456 c-3 -8 -1 -17 6 -19 11 -4 -74 -47 -94 -47 -5 0 -9 -4
-9 -10 0 -5 -15 -10 -32 -10 l-33 -1 27 -14 c24 -13 32 -13 73 1 41 13 49 14
68 1 25 -16 77 -20 77 -6 0 5 -6 9 -14 9 -21 0 -46 40 -46 72 0 30 -15 45 -23
24z"/>
<path d="M10053 5375 c-11 -30 -17 -57 -12 -61 5 -3 9 0 9 7 0 7 9 22 20 34
14 15 18 28 12 48 -7 25 -8 24 -29 -28z"/>
<path d="M10600 5421 c0 -5 7 -11 15 -15 8 -3 15 -1 15 3 0 5 -7 11 -15 15 -8
3 -15 1 -15 -3z"/>
<path d="M9400 5396 c0 -29 23 -76 37 -76 11 0 13 7 8 33 -8 34 -22 57 -36 57
-5 0 -9 -6 -9 -14z"/>
<path d="M8790 5308 c0 -50 15 -83 25 -56 10 25 1 91 -12 96 -9 2 -13 -9 -13
-40z"/>
<path d="M12865 5230 c-3 -5 -2 -10 4 -10 5 0 13 5 16 10 3 6 2 10 -4 10 -5 0
-13 -4 -16 -10z"/>
<path d="M12890 5178 c-5 -13 -9 -17 -9 -10 -1 6 -10 12 -20 12 -20 0 -29 -33
-31 -112 -4 -117 3 -139 57 -190 17 -16 21 -28 16 -47 -4 -21 -3 -24 8 -13 18
17 27 15 34 -8 3 -11 10 -20 15 -20 12 0 18 35 9 53 -12 20 -1 47 18 47 12 0
13 -3 3 -15 -13 -16 -5 -71 12 -81 7 -5 8 8 4 40 -6 37 -4 47 9 52 10 4 13 13
10 24 -4 12 0 20 12 23 17 4 17 5 1 6 -11 1 -18 9 -18 21 0 13 -7 20 -20 20
-13 0 -20 7 -20 20 0 11 3 20 8 20 4 0 12 10 18 23 9 19 7 23 -8 24 -10 1 -16
-2 -13 -8 4 -5 1 -9 -5 -9 -6 0 -8 10 -4 24 3 13 1 27 -5 30 -6 4 -11 12 -11
17 0 6 4 8 9 5 12 -8 22 20 15 39 -4 8 -11 15 -16 15 -6 0 -8 -7 -4 -15 3 -9
-2 -24 -11 -35 -18 -21 -39 -28 -28 -9 15 24 12 60 -6 70 -16 8 -21 6 -29 -13z
m5 -114 c-23 -23 -30 -10 -8 15 10 12 19 17 21 11 2 -5 -4 -17 -13 -26z m65
-53 c0 -11 3 -26 6 -35 3 -9 2 -16 -4 -16 -5 0 -12 16 -14 35 -2 19 0 35 4 35
4 0 8 -9 8 -19z m50 -72 c0 -6 -4 -7 -10 -4 -5 3 -10 11 -10 16 0 6 5 7 10 4
6 -3 10 -11 10 -16z m-70 -19 c0 -5 -2 -10 -4 -10 -3 0 -8 5 -11 10 -3 6 -1
10 4 10 6 0 11 -4 11 -10z"/>
<path d="M13005 5120 c3 -5 16 -10 28 -10 18 0 19 2 7 10 -20 13 -43 13 -35 0z"/>
<path d="M11277 5074 c3 -7 9 -14 14 -14 14 0 10 17 -5 23 -10 4 -13 1 -9 -9z"/>
<path d="M9888 5053 c7 -3 16 -2 19 1 4 3 -2 6 -13 5 -11 0 -14 -3 -6 -6z"/>
<path d="M9925 5040 c3 -5 16 -10 28 -10 18 0 19 2 7 10 -20 13 -43 13 -35 0z"/>
<path d="M13037 5023 c-12 -12 -7 -33 8 -33 17 0 19 9 7 28 -5 7 -11 9 -15 5z"/>
<path d="M11765 4989 c-4 -6 -13 -8 -21 -5 -28 11 -23 -14 6 -29 27 -14 31
-14 48 3 10 10 16 24 14 30 -5 15 -39 16 -47 1z"/>
<path d="M9610 4980 c0 -5 5 -10 11 -10 5 0 7 5 4 10 -3 6 -8 10 -11 10 -2 0
-4 -4 -4 -10z"/>
<path d="M9835 4950 c-3 -5 -1 -10 4 -10 6 0 11 5 11 10 0 6 -2 10 -4 10 -3 0
-8 -4 -11 -10z"/>
<path d="M11795 4939 c-12 -19 24 -34 76 -31 38 3 47 7 40 16 -12 14 -39 15
-59 2 -7 -4 -15 -1 -18 8 -7 18 -30 21 -39 5z"/>
<path d="M10090 4826 c0 -9 -6 -16 -12 -17 -7 0 -3 -4 9 -9 12 -5 29 -24 38
-44 17 -35 39 -51 56 -40 15 9 10 20 -14 31 -13 6 -31 27 -41 47 -19 40 -36
55 -36 32z"/>
<path d="M12920 4799 c0 -5 5 -7 10 -4 6 3 10 8 10 11 0 2 -4 4 -10 4 -5 0
-10 -5 -10 -11z"/>
<path d="M13150 4740 c0 -5 5 -10 11 -10 5 0 7 5 4 10 -3 6 -8 10 -11 10 -2 0
-4 -4 -4 -10z"/>
<path d="M12852 4646 c-27 -13 -24 -30 6 -34 18 -3 22 2 22 22 0 14 -1 25 -2
25 -2 -1 -13 -6 -26 -13z"/>
<path d="M10643 4623 c-19 -7 -16 -21 7 -33 18 -9 20 -8 20 15 0 25 -4 28 -27
18z"/>
<path d="M13441 4614 c0 -11 3 -14 6 -6 3 7 2 16 -1 19 -3 4 -6 -2 -5 -13z"/>
<path d="M10270 4610 c0 -5 4 -10 9 -10 6 0 13 5 16 10 3 6 -1 10 -9 10 -9 0
-16 -4 -16 -10z"/>
<path d="M10450 4600 c-9 -17 -7 -20 11 -20 12 0 28 -8 35 -17 19 -27 28 -8 9
20 -22 34 -43 40 -55 17z"/>
<path d="M12891 4594 c0 -11 3 -14 6 -6 3 7 2 16 -1 19 -3 4 -6 -2 -5 -13z"/>
<path d="M13226 4555 c5 -20 2 -25 -12 -25 -16 0 -17 -2 -4 -10 22 -14 30 -12
30 6 0 13 3 14 13 5 23 -19 26 0 4 25 -27 31 -39 31 -31 -1z"/>
<path d="M10710 4490 c0 -5 5 -10 11 -10 5 0 7 5 4 10 -3 6 -8 10 -11 10 -2 0
-4 -4 -4 -10z"/>
<path d="M13310 4416 c0 -9 5 -16 10 -16 6 0 10 4 10 9 0 6 -4 13 -10 16 -5 3
-10 -1 -10 -9z"/>
<path d="M11290 4311 c-14 -27 -13 -41 4 -41 20 0 29 -30 14 -47 -9 -11 -9
-16 3 -24 8 -5 17 -9 21 -9 10 0 38 30 38 41 0 5 7 9 15 9 8 0 15 5 15 10 0 6
-4 10 -10 10 -5 0 -10 7 -10 15 0 8 7 15 15 15 8 0 15 9 15 20 0 21 -15 27
-25 10 -3 -5 -17 -10 -30 -10 -13 0 -27 5 -30 10 -10 16 -23 12 -35 -9z"/>
<path d="M12730 4259 c-10 -18 -9 -20 7 -17 10 2 19 11 21 21 5 24 -15 21 -28
-4z"/>
<path d="M11415 4249 c-10 -15 0 -21 27 -17 l23 3 -22 13 c-15 8 -24 9 -28 1z"/>
<path d="M11390 4210 c0 -5 7 -10 15 -10 8 0 15 5 15 10 0 6 -7 10 -15 10 -8
0 -15 -4 -15 -10z"/>
<path d="M12800 4110 c0 -13 10 -24 25 -30 14 -5 22 -15 20 -23 -8 -20 34 -60
49 -48 7 6 16 8 19 4 4 -3 7 -4 7 0 0 3 -7 12 -15 20 -13 13 -13 16 0 27 11 9
15 9 15 1 0 -6 5 -11 11 -11 6 0 9 7 5 15 -3 9 0 15 10 15 9 0 14 7 12 18 -2
11 -13 17 -29 17 -19 1 -29 -7 -39 -29 -9 -20 -15 -25 -18 -16 -7 23 -44 60
-59 60 -7 0 -13 -9 -13 -20z"/>
<path d="M10966 4104 c-9 -24 12 -44 24 -24 5 8 8 19 7 24 -6 17 -24 17 -31 0z"/>
<path d="M12770 4100 c0 -5 5 -10 10 -10 6 0 10 5 10 10 0 6 -4 10 -10 10 -5
0 -10 -4 -10 -10z"/>
<path d="M11600 4090 c0 -13 18 -22 24 -11 3 5 -1 11 -9 15 -8 3 -15 1 -15 -4z"/>
<path d="M11050 4030 c0 -5 5 -10 10 -10 6 0 10 5 10 10 0 6 -4 10 -10 10 -5
0 -10 -4 -10 -10z"/>
<path d="M11340 4031 c0 -5 16 -11 35 -13 27 -3 32 -1 23 9 -12 15 -58 18 -58
4z"/>
<path d="M12550 4020 c-7 -4 -13 -22 -12 -39 0 -17 -3 -31 -8 -31 -4 0 -10
-10 -14 -22 -9 -35 17 -50 54 -31 34 16 47 11 60 -23 5 -13 14 -24 20 -24 18
0 31 49 20 71 -6 11 -8 24 -5 29 10 15 -48 40 -68 28 -15 -8 -17 -6 -12 15 7
27 -12 41 -35 27z"/>
<path d="M11665 4010 c3 -5 10 -10 16 -10 5 0 9 5 9 10 0 6 -7 10 -16 10 -8 0
-12 -4 -9 -10z"/>
<path d="M12904 3974 c3 -9 6 -18 6 -20 0 -3 5 -2 10 1 16 10 12 35 -6 35 -11
0 -14 -5 -10 -16z"/>
<path d="M11472 3967 c-29 -13 -28 -29 1 -25 16 2 22 -2 22 -17 0 -23 13 -20
37 10 16 20 15 22 -11 31 -18 7 -34 7 -49 1z"/>
<path d="M11270 3966 c0 -2 6 -9 13 -15 10 -8 14 -7 14 4 0 8 -6 15 -14 15 -7
0 -13 -2 -13 -4z"/>
<path d="M11625 3950 c3 -5 12 -7 20 -3 21 7 19 13 -6 13 -11 0 -18 -4 -14
-10z"/>
<path d="M11540 3920 c0 -5 5 -10 10 -10 6 0 10 5 10 10 0 6 -4 10 -10 10 -5
0 -10 -4 -10 -10z"/>
<path d="M11598 3893 c-9 -10 -21 -29 -28 -43 -11 -21 -11 -23 1 -13 15 12 53
73 46 73 -2 0 -11 -8 -19 -17z"/>
<path d="M13090 3860 c0 -5 5 -10 10 -10 6 0 10 5 10 10 0 6 -4 10 -10 10 -5
0 -10 -4 -10 -10z"/>
<path d="M10386 3794 c-5 -12 -2 -15 10 -10 8 3 18 6 20 6 2 0 4 5 4 10 0 16
-27 11 -34 -6z"/>
<path d="M12920 3770 c0 -5 5 -10 10 -10 6 0 10 5 10 10 0 6 -4 10 -10 10 -5
0 -10 -4 -10 -10z"/>
<path d="M12533 3718 c-4 -7 -13 -22 -18 -33 -6 -10 -21 -22 -34 -25 -19 -4
-21 -7 -10 -16 8 -6 22 -14 31 -17 10 -4 15 -12 12 -21 -6 -16 -42 -28 -49
-16 -7 12 -45 0 -45 -14 0 -31 54 -48 77 -25 9 9 23 6 57 -10 25 -11 46 -25
46 -31 0 -5 11 -12 25 -16 14 -3 25 -12 25 -19 0 -7 8 -23 19 -36 l18 -23 24
29 c13 15 29 33 35 39 18 19 -6 41 -43 40 -18 -1 -33 3 -33 7 0 5 -13 15 -30
24 -16 9 -30 22 -30 29 0 8 -6 16 -14 19 -9 4 -12 14 -9 26 6 22 -6 28 -23 11
-8 -8 -15 -6 -23 4 -10 12 -9 19 8 38 12 12 20 27 18 32 -5 16 -24 18 -34 4z
m-68 -156 c-3 -3 -11 0 -18 7 -9 10 -8 11 6 5 10 -3 15 -9 12 -12z"/>
<path d="M13085 3709 c-10 -15 3 -25 16 -12 7 7 7 13 1 17 -6 3 -14 1 -17 -5z"/>
<path d="M10775 3691 c-7 -12 12 -24 25 -16 11 7 4 25 -10 25 -5 0 -11 -4 -15
-9z"/>
<path d="M12763 3635 c3 -19 4 -35 3 -35 -1 0 -16 4 -33 9 -32 9 -32 9 -26
-22 7 -37 14 -47 20 -29 3 6 11 12 19 12 9 0 12 -4 9 -10 -3 -5 -1 -10 4 -10
6 0 11 6 11 13 1 6 7 -3 16 -22 8 -19 12 -36 9 -39 -3 -3 3 -14 12 -25 10 -10
23 -47 29 -81 10 -50 9 -62 -2 -69 -8 -4 -14 -17 -14 -28 0 -12 -4 -17 -11
-13 -6 3 -16 0 -21 -7 -7 -11 -11 -11 -15 -1 -6 14 -39 16 -48 2 -3 -5 1 -10
9 -10 9 0 16 -6 16 -14 0 -8 14 -19 30 -25 17 -5 30 -15 30 -20 0 -6 9 -11 20
-11 14 0 20 6 18 17 -2 10 3 18 12 18 15 0 75 84 136 192 29 51 33 66 24 83
-9 18 -8 20 15 20 14 0 25 4 25 8 0 11 -107 35 -119 28 -5 -4 -13 -2 -16 4 -4
6 -21 8 -41 4 -22 -4 -34 -2 -34 5 0 6 -7 11 -15 11 -8 0 -15 5 -15 10 0 14
-42 70 -52 70 -5 0 -7 -16 -5 -35z m217 -92 c21 -18 26 -38 12 -47 -15 -9 -52
6 -52 20 0 8 -7 14 -15 14 -23 0 -18 18 8 23 12 2 23 5 24 6 2 0 12 -7 23 -16z
m-106 -102 c-9 -10 -33 30 -27 45 4 11 9 7 19 -12 8 -15 12 -30 8 -33z m41 29
c-3 -5 -13 -10 -21 -10 -8 0 -14 5 -14 10 0 6 9 10 21 10 11 0 17 -4 14 -10z
m58 -36 c3 -4 -1 -13 -9 -21 -18 -18 -27 -13 -18 11 6 17 16 20 27 10z m-56
-20 c-3 -3 -12 -4 -19 -1 -8 3 -5 6 6 6 11 1 17 -2 13 -5z m-36 -47 c-1 -12
-15 -9 -19 4 -3 6 1 10 8 8 6 -3 11 -8 11 -12z m-1 -46 c0 -5 -7 -11 -15 -15
-15 -5 -20 5 -8 17 9 10 23 9 23 -2z m15 -41 c-3 -5 -14 -6 -26 -3 -15 4 -17
8 -8 13 15 10 41 1 34 -10z m-80 -20 c3 -5 -1 -10 -10 -10 -9 0 -13 5 -10 10
3 6 8 10 10 10 2 0 7 -4 10 -10z"/>
<path d="M10705 3549 c-10 -15 3 -25 16 -12 7 7 7 13 1 17 -6 3 -14 1 -17 -5z"/>
<path d="M12430 3486 c0 -24 17 -28 23 -6 3 13 0 20 -9 20 -8 0 -14 -6 -14
-14z"/>
<path d="M12760 3441 c0 -11 4 -21 9 -21 18 0 21 18 6 30 -13 10 -15 9 -15 -9z"/>
<path d="M12192 3429 c-7 -11 -8 -19 -2 -19 5 0 19 -9 30 -20 10 -10 22 -15
25 -10 3 4 -2 15 -10 23 -8 9 -15 20 -15 26 0 19 -16 20 -28 0z"/>
<path d="M12476 3433 c-14 -4 -15 -7 -6 -13 15 -9 50 -1 50 11 0 9 -12 10 -44
2z"/>
<path d="M12412 3403 c-7 -13 -8 -24 -2 -28 6 -4 6 -15 -1 -32 -10 -27 -6 -53
8 -53 13 0 32 57 23 67 -5 4 -10 22 -12 38 -3 29 -3 29 -16 8z"/>
<path d="M11100 3399 c0 -5 5 -7 10 -4 6 3 10 8 10 11 0 2 -4 4 -10 4 -5 0
-10 -5 -10 -11z"/>
<path d="M12321 3396 c-10 -11 -8 -17 11 -30 32 -23 40 -20 36 11 -3 31 -29
41 -47 19z"/>
<path d="M12800 3390 c0 -5 5 -10 10 -10 6 0 10 5 10 10 0 6 -4 10 -10 10 -5
0 -10 -4 -10 -10z"/>
<path d="M12295 3350 c3 -5 8 -10 11 -10 2 0 4 5 4 10 0 6 -5 10 -11 10 -5 0
-7 -4 -4 -10z"/>
<path d="M12582 3340 c0 -14 2 -19 5 -12 2 6 2 18 0 25 -3 6 -5 1 -5 -13z"/>
<path d="M12265 3324 c-18 -14 -18 -14 0 -28 20 -15 55 -10 55 8 0 6 -8 16
-18 22 -14 9 -22 8 -37 -2z"/>
<path d="M12545 3320 c-3 -5 -1 -10 4 -10 6 0 11 5 11 10 0 6 -2 10 -4 10 -3
0 -8 -4 -11 -10z"/>
<path d="M12638 3293 c6 -2 18 -2 25 0 6 3 1 5 -13 5 -14 0 -19 -2 -12 -5z"/>
<path d="M12425 3270 c-3 -5 -2 -10 4 -10 5 0 13 5 16 10 3 6 2 10 -4 10 -5 0
-13 -4 -16 -10z"/>
<path d="M12320 3250 c0 -5 5 -10 10 -10 6 0 10 5 10 10 0 6 -4 10 -10 10 -5
0 -10 -4 -10 -10z"/>
</g>
</svg>
